<?xml version="1.0" encoding="UTF-8"?>
<svg xmlns="http://www.w3.org/2000/svg" xmlns:xlink="http://www.w3.org/1999/xlink" width="52px" height="52px" viewBox="0 0 32 32" version="1.1">
<g id="surface1">
<path style=" stroke:none;fill-rule:evenodd;fill:rgb(0%,14.901961%,38.823529%);fill-opacity:1;" d="M 5.75 15.953125 L 4.660156 13.292969 L 3.574219 15.953125 Z M 16.230469 18.835938 L 16.226562 13.605469 L 13.910156 18.835938 L 12.507812 18.835938 L 10.1875 13.601562 L 10.1875 18.835938 L 6.941406 18.835938 L 6.328125 17.34375 L 3.003906 17.34375 L 2.382812 18.835938 L 0.652344 18.835938 L 3.507812 12.15625 L 5.882812 12.15625 L 8.597656 18.480469 L 8.597656 12.15625 L 11.199219 12.15625 L 13.289062 16.6875 L 15.210938 12.15625 L 17.867188 12.15625 L 17.867188 18.835938 Z M 20.40625 17.46875 L 20.40625 16.140625 L 23.910156 16.140625 L 23.910156 14.777344 L 20.40625 14.777344 L 20.40625 13.5625 L 24.410156 13.5625 L 26.15625 15.507812 L 24.332031 17.46875 Z M 31.222656 18.859375 L 29.148438 18.859375 L 27.183594 16.648438 L 25.140625 18.859375 L 18.816406 18.859375 L 18.816406 12.179688 L 25.238281 12.179688 L 27.203125 14.371094 L 29.230469 12.179688 L 31.316406 12.179688 L 28.214844 15.519531 Z M 31.222656 18.859375 "/>
</g>
</svg>
