<?xml version="1.0" encoding="UTF-8"?>
<svg width="228px" height="90px" viewBox="0 0 358 250" version="1.1" xmlns="http://www.w3.org/2000/svg" xmlns:xlink="http://www.w3.org/1999/xlink">
    <title>Group 20</title>
    <g id="Design" stroke="none" stroke-width="1" fill="none" fill-rule="evenodd">
        <g id="Group-20" transform="translate(0.883335, 0.622105)">
            <path d="M24.1778308,194.716302 C10.4133397,192.040756 1.34164657,178.591418 4.01719259,164.826927 L32.0447426,20.6298089 C34.7202887,6.86531783 48.1713882,-2.20756336 61.9358792,0.467982662 L335.69795,53.6819387 C349.462442,56.3574847 358.535323,69.8085843 355.859777,83.5730753 L327.831039,227.768432 C325.155493,241.532923 311.704393,250.605804 297.939902,247.930258 L24.1778308,194.716302 Z" id="Fill-1" fill="#3E928A"></path>
            <path d="M25.4948944,235.141124 C11.4727776,235.141124 0,223.669848 0,209.647732 L0,62.7520118 C0,48.729895 11.4727776,37.2571174 25.4948944,37.2571174 L304.380887,37.2571174 C318.403004,37.2571174 329.875781,48.729895 329.875781,62.7520118 L329.875781,209.646229 C329.875781,223.668346 318.403004,235.141124 304.380887,235.141124 L25.4948944,235.141124 Z" id="Fill-1-Copy" fill="#464646"></path>
            <path d="M252.553335,102.583676 C242.399409,92.4297493 242.399409,75.9684918 252.553335,65.8145654 C262.705175,55.660639 279.168519,55.660639 289.322446,65.8145654 C299.476372,75.9684918 299.476372,92.4297493 289.322446,102.583676 C279.168519,112.737602 262.705175,112.737602 252.553335,102.583676 Z" id="Fill-6" fill="#4DB6AC" transform="translate(270.937891, 84.199121) rotate(-45.000000) translate(-270.937891, -84.199121) "></path>
            <path d="M23.8371214,153.154387 C21.3772172,150.694821 21.3772172,146.721676 23.8371214,144.241089 C26.2970256,141.781523 30.2917419,141.781523 32.7516461,144.241089 C35.2115504,146.721676 35.2115504,150.694821 32.7516461,153.154387 C31.5111816,154.394681 29.9132951,155.004317 28.2943838,155.004317 C26.6754724,155.004317 25.0565611,154.394681 23.8371214,153.154387 L23.8371214,153.154387 Z" id="Path" fill="#FFFFFF" transform="translate(28.294384, 148.700366) rotate(-45.000000) translate(-28.294384, -148.700366) "></path>
            <path d="M49.0612563,153.160084 C46.601352,150.700518 46.601352,146.706351 49.0612563,144.246786 C51.5211605,141.78722 55.5158768,141.78722 57.9968058,144.246786 C60.45671,146.706351 60.45671,150.700518 57.9968058,153.160084 C56.7563413,154.400378 55.13743,155.010014 53.5185186,155.010014 C51.9206321,155.010014 50.3017208,154.400378 49.0612563,153.160084 L49.0612563,153.160084 Z" id="Path" fill="#FFFFFF" transform="translate(53.529031, 148.706062) rotate(-45.000000) translate(-53.529031, -148.706062) "></path>
            <path d="M74.2915512,153.171938 C71.831647,150.69135 71.831647,146.697184 74.2915512,144.237618 C76.7514554,141.778052 80.7461717,141.778052 83.2060759,144.237618 C85.6659802,146.697184 85.6659802,150.69135 83.2060759,153.171938 C81.9656114,154.39121 80.3677249,155.000846 78.7488136,155.000846 C77.1299022,155.000846 75.5109909,154.39121 74.2915512,153.171938 L74.2915512,153.171938 Z" id="Path" fill="#FFFFFF" transform="translate(78.748814, 148.696895) rotate(-45.000000) translate(-78.748814, -148.696895) "></path>
            <path d="M99.515686,153.156613 C97.0557818,150.697047 97.0557818,146.70288 99.515686,144.243315 C101.97559,141.783749 105.970307,141.783749 108.451236,144.243315 C110.91114,146.70288 110.91114,150.697047 108.451236,153.156613 C107.210771,154.396907 105.59186,155.006543 103.972948,155.006543 C102.375062,155.006543 100.756151,154.396907 99.515686,153.156613 L99.515686,153.156613 Z" id="Path" fill="#FFFFFF" transform="translate(103.983461, 148.702592) rotate(-45.000000) translate(-103.983461, -148.702592) "></path>
            <path d="M124.753413,153.165388 C122.293509,150.705823 122.293509,146.690634 124.753413,144.231068 C127.213318,141.771502 131.208034,141.771502 133.667938,144.231068 C136.127842,146.690634 136.127842,150.705823 133.667938,153.165388 C132.448498,154.38466 130.829587,155.015318 129.210676,155.015318 C127.591764,155.015318 125.972853,154.38466 124.753413,153.165388 L124.753413,153.165388 Z" id="Path" fill="#FFFFFF" transform="translate(129.210676, 148.700856) rotate(-45.000000) translate(-129.210676, -148.700856) "></path>
            <path d="M149.970116,153.153142 C147.510212,150.693576 147.510212,146.699409 149.970116,144.239844 C152.451045,141.780278 156.445761,141.780278 158.905665,144.239844 C161.36557,146.699409 161.36557,150.693576 158.905665,153.153142 C157.665201,154.393436 156.04629,155.003072 154.448403,155.003072 C152.829492,155.003072 151.21058,154.393436 149.970116,153.153142 L149.970116,153.153142 Z" id="Path" fill="#FFFFFF" transform="translate(154.437891, 148.699121) rotate(-45.000000) translate(-154.437891, -148.699121) "></path>
            <path d="M175.207843,153.161917 C172.747939,150.702352 172.747939,146.708185 175.207843,144.227597 C177.667747,141.768031 181.662464,141.768031 184.122368,144.227597 C186.582272,146.708185 186.582272,150.702352 184.122368,153.161917 C182.902928,154.381189 181.284017,155.011847 179.665106,155.011847 C178.046194,155.011847 176.427283,154.381189 175.207843,153.161917 L175.207843,153.161917 Z" id="Path" fill="#FFFFFF" transform="translate(179.665106, 148.697385) rotate(-45.000000) translate(-179.665106, -148.697385) "></path>
            <path d="M200.424546,153.149671 C197.964641,150.690105 197.964641,146.695939 200.424546,144.236373 C202.905475,141.776807 206.900191,141.776807 209.360095,144.236373 C211.819999,146.695939 211.819999,150.690105 209.360095,153.149671 C208.119631,154.389965 206.500719,154.999601 204.902833,154.999601 C203.283921,154.999601 201.66501,154.389965 200.424546,153.149671 L200.424546,153.149671 Z" id="Path" fill="#FFFFFF" transform="translate(204.892320, 148.695650) rotate(-45.000000) translate(-204.892320, -148.695650) "></path>
            <path d="M225.664131,153.157677 C223.204227,150.698111 223.204227,146.703944 225.664131,144.244379 C228.124035,141.763791 232.118752,141.763791 234.578656,144.244379 C237.03856,146.703944 237.03856,150.698111 234.578656,153.157677 C233.359216,154.376949 231.740305,155.007607 230.121393,155.007607 C228.502482,155.007607 226.904596,154.376949 225.664131,153.157677 L225.664131,153.157677 Z" id="Path" fill="#FFFFFF" transform="translate(230.121393, 148.695772) rotate(-45.000000) translate(-230.121393, -148.695772) "></path>
            <path d="M250.896921,153.138767 C248.437017,150.679201 248.437017,146.685034 250.896921,144.225468 C253.356825,141.765903 257.351542,141.765903 259.811446,144.225468 C262.27135,146.685034 262.27135,150.679201 259.811446,153.138767 C258.570981,154.379061 256.973095,154.988697 255.354184,154.988697 C253.735272,154.988697 252.116361,154.379061 250.896921,153.138767 L250.896921,153.138767 Z" id="Path" fill="#FFFFFF" transform="translate(255.354184, 148.684745) rotate(-45.000000) translate(-255.354184, -148.684745) "></path>
            <path d="M276.124135,153.151897 C273.664231,150.692331 273.664231,146.698164 276.124135,144.238599 C278.584039,141.779033 282.578756,141.779033 285.03866,144.238599 C287.498564,146.698164 287.498564,150.692331 285.03866,153.151897 C283.81922,154.371169 282.200309,155.001827 280.581397,155.001827 C278.962486,155.001827 277.3646,154.371169 276.124135,153.151897 L276.124135,153.151897 Z" id="Path" fill="#FFFFFF" transform="translate(280.581397, 148.697876) rotate(-45.000000) translate(-280.581397, -148.697876) "></path>
            <path d="M84.3962207,188.112328 C83.2590313,189.249517 81.6894731,189.951377 79.9540747,189.951377 L30.4952206,189.951377 C27.0259045,189.952857 24.2125454,187.139498 24.2140249,183.670182 C24.2140249,180.199385 27.0244238,177.388986 30.4952206,177.388986 L79.9540747,177.388986 C83.4233908,177.387506 86.2367499,180.200866 86.2352704,183.670182 C86.2352704,185.40558 85.5334101,186.975138 84.3962207,188.112328 L84.3962207,188.112328 Z" id="Fill-10" fill="#FF7F00"></path>
            <path d="M163.624517,189.244161 C162.487327,190.38135 160.917762,191.083202 159.18383,191.084668 L109.724567,191.08426 C106.253742,191.084231 103.441788,188.272306 103.441788,184.801481 C103.441788,181.330655 106.253638,178.521738 109.722983,178.520286 L159.180765,178.519214 C162.65159,178.519214 165.464996,181.332648 165.463545,184.801993 C165.463545,186.537406 164.761706,188.106971 163.624517,189.244161 L163.624517,189.244161 Z" id="Fill-12" fill="#FF7F00"></path>
        </g>
    </g>
</svg>