<svg xmlns="http://www.w3.org/2000/svg" width="20" height="20" viewBox="0 0 17.699 17.707">
  <g id="Group_14949" data-name="Group 14949" transform="translate(-45.278 -411.321)">
    <path id="Op_component_1" data-name="Op component 1" d="M737.861,822.683l-.374.157-.074-.174a1.306,1.306,0,0,1,.7-1.71l10.778-4.544a1.308,1.308,0,0,1,1.711.695l.074.174-10.854,4.576c.04,0,.081,0,.121,0h6.821l4.96-2.091.961,2.277a3.041,3.041,0,0,1,1.294.919,2.313,2.313,0,0,0-.181-.941l-2.244-5.313a2.347,2.347,0,0,0-3.065-1.245l-10.778,4.545a2.344,2.344,0,0,0-1.246,3.063l.51,1.208A3.023,3.023,0,0,1,737.861,822.683Z" transform="translate(-691 -403.957)" fill="#0a214a"/>
    <path id="Op_component_2" data-name="Op component 2" d="M752.907,829.518h-11.7a2.346,2.346,0,0,0-2.34,2.338v5.766a2.346,2.346,0,0,0,2.34,2.338h11.7a2.346,2.346,0,0,0,2.34-2.338v-5.766A2.346,2.346,0,0,0,752.907,829.518Zm-11.7,1.033h11.7a1.307,1.307,0,0,1,1.306,1.305v.189H739.9v-.189A1.307,1.307,0,0,1,741.209,830.551Zm11.7,8.376h-11.7a1.307,1.307,0,0,1-1.306-1.3V834.74h14.311v2.883A1.307,1.307,0,0,1,752.907,838.928Z" transform="translate(-692.269 -410.932)" fill="#0a214a"/>
  </g>
</svg>
