<?xml version="1.0" encoding="UTF-8"?>
<svg xmlns="http://www.w3.org/2000/svg" xmlns:xlink="http://www.w3.org/1999/xlink" width="52px" height="52px" viewBox="0 0 32 32" version="1.1">
<g id="surface1">
<path style=" stroke:none;fill-rule:evenodd;fill:rgb(3.137255%,30.588235%,58.039216%);fill-opacity:1;" d="M 30.996094 24.375 C 30.996094 24.925781 30.550781 25.371094 30 25.371094 L 2 25.371094 C 1.453125 25.371094 1.003906 24.925781 1.003906 24.375 L 1.003906 7.625 C 1.003906 7.074219 1.449219 6.628906 2 6.628906 L 30 6.628906 C 30.550781 6.628906 30.996094 7.074219 30.996094 7.625 Z M 30.996094 24.375 "/>
<path style=" stroke:none;fill-rule:evenodd;fill:rgb(100%,100%,100%);fill-opacity:1;" d="M 16.722656 16.851562 C 18.414062 16.863281 19.960938 15.46875 19.960938 13.78125 C 19.960938 11.929688 18.414062 10.652344 16.722656 10.652344 L 15.261719 10.652344 C 13.542969 10.652344 12.132812 11.929688 12.132812 13.78125 C 12.132812 15.46875 13.542969 16.863281 15.261719 16.851562 Z M 16.722656 16.851562 "/>
<path style=" stroke:none;fill-rule:evenodd;fill:rgb(3.137255%,30.588235%,58.039216%);fill-opacity:1;" d="M 15.910156 15.425781 L 15.910156 12.066406 C 16.585938 12.324219 17.066406 12.980469 17.066406 13.746094 C 17.066406 14.511719 16.585938 15.167969 15.910156 15.425781 M 13.46875 13.746094 C 13.46875 12.980469 13.949219 12.324219 14.625 12.066406 L 14.625 15.425781 C 13.949219 15.167969 13.46875 14.511719 13.46875 13.746094 M 15.265625 10.90625 C 13.699219 10.90625 12.425781 12.179688 12.425781 13.746094 C 12.425781 15.3125 13.699219 16.582031 15.265625 16.585938 C 16.835938 16.582031 18.101562 15.3125 18.101562 13.746094 C 18.101562 12.179688 16.835938 10.90625 15.265625 10.90625 Z M 15.265625 10.90625 "/>
<path style=" stroke:none;fill-rule:evenodd;fill:rgb(100%,100%,100%);fill-opacity:1;" d="M 8.960938 18.96875 C 8.960938 19.21875 9.140625 19.253906 9.304688 19.253906 C 10.007812 19.253906 10.246094 18.714844 10.246094 18.226562 C 10.246094 17.613281 9.851562 17.171875 9.21875 17.171875 C 9.085938 17.171875 9.023438 17.183594 8.960938 17.183594 Z M 8.640625 17.429688 C 8.640625 17.132812 8.488281 17.15625 8.339844 17.148438 L 8.339844 17.066406 C 8.464844 17.070312 8.601562 17.070312 8.722656 17.070312 C 8.863281 17.070312 9.050781 17.066406 9.292969 17.066406 C 10.144531 17.066406 10.605469 17.632812 10.605469 18.214844 C 10.605469 18.535156 10.414062 19.351562 9.253906 19.351562 C 9.085938 19.351562 8.933594 19.347656 8.78125 19.347656 C 8.632812 19.347656 8.488281 19.351562 8.339844 19.351562 L 8.339844 19.269531 C 8.539062 19.253906 8.632812 19.242188 8.640625 19.019531 Z M 8.640625 17.429688 "/>
<path style=" stroke:none;fill-rule:evenodd;fill:rgb(100%,100%,100%);fill-opacity:1;" d="M 11.070312 17.351562 C 10.984375 17.351562 10.910156 17.273438 10.910156 17.1875 C 10.910156 17.105469 10.988281 17.03125 11.070312 17.03125 C 11.152344 17.03125 11.230469 17.097656 11.230469 17.1875 C 11.230469 17.273438 11.160156 17.351562 11.070312 17.351562 M 10.71875 19.269531 L 10.78125 19.269531 C 10.871094 19.269531 10.9375 19.269531 10.9375 19.160156 L 10.9375 18.273438 C 10.9375 18.128906 10.886719 18.109375 10.769531 18.046875 L 10.769531 17.988281 C 10.921875 17.945312 11.109375 17.882812 11.121094 17.871094 C 11.140625 17.859375 11.164062 17.855469 11.175781 17.855469 C 11.191406 17.855469 11.203125 17.875 11.203125 17.90625 L 11.203125 19.160156 C 11.203125 19.269531 11.273438 19.269531 11.367188 19.269531 L 11.421875 19.269531 L 11.421875 19.351562 C 11.3125 19.351562 11.191406 19.347656 11.078125 19.347656 C 10.960938 19.347656 10.84375 19.351562 10.71875 19.351562 Z M 10.71875 19.269531 "/>
<path style=" stroke:none;fill-rule:evenodd;fill:rgb(100%,100%,100%);fill-opacity:1;" d="M 11.734375 18.292969 C 11.734375 18.167969 11.695312 18.136719 11.542969 18.074219 L 11.542969 18.011719 C 11.683594 17.96875 11.820312 17.925781 11.976562 17.855469 C 11.988281 17.855469 11.992188 17.867188 11.992188 17.886719 L 11.992188 18.101562 C 12.183594 17.96875 12.34375 17.855469 12.5625 17.855469 C 12.839844 17.855469 12.941406 18.058594 12.941406 18.316406 L 12.941406 19.160156 C 12.941406 19.269531 13.011719 19.269531 13.101562 19.269531 L 13.160156 19.269531 L 13.160156 19.351562 C 13.046875 19.351562 12.933594 19.347656 12.816406 19.347656 C 12.699219 19.347656 12.578125 19.351562 12.460938 19.351562 L 12.460938 19.269531 L 12.515625 19.269531 C 12.613281 19.269531 12.675781 19.269531 12.675781 19.160156 L 12.675781 18.3125 C 12.675781 18.125 12.5625 18.035156 12.375 18.035156 C 12.269531 18.035156 12.105469 18.117188 11.992188 18.191406 L 11.992188 19.160156 C 11.992188 19.269531 12.066406 19.269531 12.15625 19.269531 L 12.21875 19.269531 L 12.21875 19.351562 C 12.105469 19.351562 11.988281 19.347656 11.867188 19.347656 C 11.75 19.347656 11.632812 19.351562 11.515625 19.351562 L 11.515625 19.269531 L 11.574219 19.269531 C 11.667969 19.269531 11.734375 19.269531 11.734375 19.160156 Z M 11.734375 18.292969 "/>
<path style=" stroke:none;fill-rule:evenodd;fill:rgb(100%,100%,100%);fill-opacity:1;" d="M 13.992188 18.34375 C 14.074219 18.34375 14.082031 18.300781 14.082031 18.261719 C 14.082031 18.097656 13.980469 17.960938 13.796875 17.960938 C 13.597656 17.960938 13.457031 18.109375 13.417969 18.34375 Z M 13.414062 18.453125 C 13.402344 18.480469 13.402344 18.53125 13.414062 18.636719 C 13.429688 18.953125 13.632812 19.207031 13.890625 19.207031 C 14.074219 19.207031 14.214844 19.109375 14.335938 18.988281 L 14.382812 19.03125 C 14.230469 19.234375 14.042969 19.402344 13.773438 19.402344 C 13.253906 19.402344 13.148438 18.898438 13.148438 18.6875 C 13.148438 18.046875 13.582031 17.855469 13.8125 17.855469 C 14.078125 17.855469 14.359375 18.023438 14.367188 18.371094 C 14.367188 18.390625 14.367188 18.414062 14.359375 18.429688 L 14.332031 18.453125 Z M 13.414062 18.453125 "/>
<path style=" stroke:none;fill-rule:evenodd;fill:rgb(100%,100%,100%);fill-opacity:1;" d="M 14.4375 19.269531 L 14.527344 19.269531 C 14.621094 19.269531 14.6875 19.269531 14.6875 19.160156 L 14.6875 18.238281 C 14.6875 18.136719 14.5625 18.117188 14.519531 18.089844 L 14.519531 18.046875 C 14.753906 17.9375 14.882812 17.855469 14.917969 17.855469 C 14.933594 17.855469 14.945312 17.867188 14.945312 17.898438 L 14.945312 18.191406 L 14.953125 18.191406 C 15.03125 18.070312 15.171875 17.855469 15.367188 17.855469 C 15.453125 17.855469 15.558594 17.910156 15.558594 18.027344 C 15.558594 18.117188 15.5 18.199219 15.402344 18.199219 C 15.300781 18.199219 15.300781 18.117188 15.1875 18.117188 C 15.132812 18.117188 14.945312 18.191406 14.945312 18.390625 L 14.945312 19.160156 C 14.945312 19.269531 15.015625 19.269531 15.105469 19.269531 L 15.289062 19.269531 L 15.289062 19.351562 C 15.109375 19.351562 14.96875 19.347656 14.828125 19.347656 C 14.699219 19.347656 14.558594 19.351562 14.4375 19.351562 Z M 14.4375 19.269531 "/>
<path style=" stroke:none;fill-rule:evenodd;fill:rgb(100%,100%,100%);fill-opacity:1;" d="M 15.703125 18.898438 C 15.746094 19.117188 15.875 19.296875 16.113281 19.296875 C 16.308594 19.296875 16.382812 19.179688 16.382812 19.066406 C 16.382812 18.675781 15.667969 18.800781 15.667969 18.277344 C 15.667969 18.089844 15.8125 17.855469 16.175781 17.855469 C 16.28125 17.855469 16.417969 17.886719 16.546875 17.949219 L 16.570312 18.28125 L 16.496094 18.28125 C 16.460938 18.078125 16.347656 17.960938 16.140625 17.960938 C 16.003906 17.960938 15.882812 18.035156 15.882812 18.175781 C 15.882812 18.558594 16.640625 18.441406 16.640625 18.957031 C 16.640625 19.171875 16.46875 19.402344 16.078125 19.402344 C 15.949219 19.402344 15.796875 19.359375 15.679688 19.292969 L 15.644531 18.914062 Z M 15.703125 18.898438 "/>
<path style=" stroke:none;fill-rule:evenodd;fill:rgb(100%,100%,100%);fill-opacity:1;" d="M 19.601562 17.65625 L 19.523438 17.65625 C 19.460938 17.273438 19.183594 17.121094 18.816406 17.121094 C 18.441406 17.121094 17.894531 17.375 17.894531 18.160156 C 17.894531 18.824219 18.367188 19.296875 18.875 19.296875 C 19.195312 19.296875 19.464844 19.078125 19.535156 18.734375 L 19.605469 18.75 L 19.535156 19.230469 C 19.394531 19.3125 19.019531 19.402344 18.808594 19.402344 C 18.039062 19.402344 17.554688 18.90625 17.554688 18.171875 C 17.554688 17.5 18.152344 17.015625 18.796875 17.015625 C 19.058594 17.015625 19.320312 17.105469 19.574219 17.191406 Z M 19.601562 17.65625 "/>
<path style=" stroke:none;fill-rule:evenodd;fill:rgb(100%,100%,100%);fill-opacity:1;" d="M 19.71875 19.269531 L 19.78125 19.269531 C 19.878906 19.269531 19.9375 19.269531 19.9375 19.160156 L 19.9375 17.335938 C 19.9375 17.121094 19.894531 17.117188 19.765625 17.078125 L 19.765625 17.027344 C 19.898438 16.988281 20.035156 16.925781 20.101562 16.886719 C 20.140625 16.867188 20.164062 16.851562 20.175781 16.851562 C 20.199219 16.851562 20.203125 16.867188 20.203125 16.894531 L 20.203125 19.160156 C 20.203125 19.269531 20.277344 19.269531 20.367188 19.269531 L 20.425781 19.269531 L 20.425781 19.351562 C 20.3125 19.351562 20.199219 19.347656 20.082031 19.347656 C 19.960938 19.347656 19.84375 19.351562 19.71875 19.351562 Z M 19.71875 19.269531 "/>
<path style=" stroke:none;fill-rule:evenodd;fill:rgb(100%,100%,100%);fill-opacity:1;" d="M 21.828125 19.171875 C 21.828125 19.234375 21.863281 19.234375 21.917969 19.234375 C 21.957031 19.234375 22.007812 19.234375 22.046875 19.234375 L 22.046875 19.304688 C 21.90625 19.3125 21.640625 19.382812 21.578125 19.402344 L 21.5625 19.394531 L 21.5625 19.128906 C 21.367188 19.292969 21.214844 19.402344 20.980469 19.402344 C 20.800781 19.402344 20.621094 19.292969 20.621094 19.015625 L 20.621094 18.175781 C 20.621094 18.089844 20.605469 18.007812 20.425781 17.988281 L 20.425781 17.925781 C 20.542969 17.925781 20.800781 17.90625 20.847656 17.90625 C 20.878906 17.90625 20.878906 17.925781 20.878906 18 L 20.878906 18.847656 C 20.878906 18.941406 20.878906 19.222656 21.167969 19.222656 C 21.28125 19.222656 21.425781 19.140625 21.5625 19.027344 L 21.5625 18.148438 C 21.5625 18.078125 21.40625 18.046875 21.285156 18.011719 L 21.285156 17.949219 C 21.585938 17.933594 21.765625 17.90625 21.800781 17.90625 C 21.828125 17.90625 21.828125 17.925781 21.828125 17.96875 Z M 21.828125 19.171875 "/>
<path style=" stroke:none;fill-rule:evenodd;fill:rgb(100%,100%,100%);fill-opacity:1;" d="M 22.476562 18.980469 C 22.476562 19.109375 22.59375 19.320312 22.8125 19.320312 C 23.167969 19.320312 23.316406 18.976562 23.316406 18.683594 C 23.316406 18.328125 23.042969 18.035156 22.792969 18.035156 C 22.667969 18.035156 22.566406 18.113281 22.476562 18.1875 Z M 22.476562 18.089844 C 22.609375 17.976562 22.785156 17.855469 22.964844 17.855469 C 23.347656 17.855469 23.574219 18.1875 23.574219 18.542969 C 23.574219 18.976562 23.257812 19.402344 22.792969 19.402344 C 22.550781 19.402344 22.425781 19.324219 22.335938 19.292969 L 22.238281 19.363281 L 22.171875 19.332031 C 22.199219 19.132812 22.214844 18.941406 22.214844 18.746094 L 22.214844 17.335938 C 22.214844 17.121094 22.164062 17.117188 22.042969 17.078125 L 22.042969 17.027344 C 22.171875 16.988281 22.3125 16.925781 22.378906 16.886719 C 22.414062 16.867188 22.441406 16.851562 22.453125 16.851562 C 22.46875 16.851562 22.476562 16.867188 22.476562 16.894531 Z M 22.476562 18.089844 "/>
<path style=" stroke:none;fill-rule:evenodd;fill:rgb(100%,100%,100%);fill-opacity:1;" d="M 8.335938 21.257812 L 8.363281 21.257812 C 8.425781 21.257812 8.492188 21.253906 8.492188 21.15625 L 8.492188 20.226562 C 8.492188 20.132812 8.425781 20.121094 8.363281 20.121094 L 8.335938 20.121094 L 8.335938 20.070312 C 8.402344 20.070312 8.511719 20.074219 8.601562 20.074219 C 8.691406 20.074219 8.796875 20.070312 8.882812 20.070312 L 8.882812 20.121094 L 8.855469 20.121094 C 8.792969 20.121094 8.722656 20.132812 8.722656 20.226562 L 8.722656 21.15625 C 8.722656 21.253906 8.792969 21.257812 8.855469 21.257812 L 8.882812 21.257812 L 8.882812 21.316406 C 8.792969 21.316406 8.683594 21.308594 8.601562 21.308594 C 8.511719 21.308594 8.402344 21.316406 8.335938 21.316406 Z M 8.335938 21.257812 "/>
<path style=" stroke:none;fill-rule:evenodd;fill:rgb(100%,100%,100%);fill-opacity:1;" d="M 8.871094 21.308594 L 8.871094 21.269531 L 8.855469 21.269531 C 8.792969 21.269531 8.714844 21.257812 8.714844 21.15625 L 8.714844 20.226562 C 8.714844 20.125 8.792969 20.113281 8.855469 20.113281 L 8.871094 20.113281 L 8.871094 20.074219 C 8.792969 20.074219 8.683594 20.085938 8.601562 20.085938 C 8.515625 20.085938 8.414062 20.074219 8.347656 20.074219 L 8.347656 20.113281 L 8.359375 20.113281 C 8.425781 20.113281 8.5 20.125 8.5 20.226562 L 8.5 21.15625 C 8.5 21.257812 8.425781 21.269531 8.359375 21.269531 L 8.347656 21.269531 L 8.347656 21.308594 C 8.414062 21.304688 8.515625 21.296875 8.601562 21.296875 C 8.683594 21.296875 8.785156 21.304688 8.871094 21.308594 M 8.882812 21.320312 C 8.792969 21.320312 8.683594 21.316406 8.601562 21.316406 C 8.511719 21.316406 8.410156 21.320312 8.335938 21.320312 L 8.328125 21.320312 L 8.328125 21.253906 L 8.359375 21.253906 C 8.425781 21.253906 8.480469 21.246094 8.488281 21.15625 L 8.488281 20.222656 C 8.480469 20.136719 8.425781 20.132812 8.359375 20.132812 L 8.328125 20.132812 L 8.328125 20.058594 L 8.335938 20.058594 C 8.410156 20.058594 8.511719 20.070312 8.601562 20.070312 C 8.691406 20.070312 8.796875 20.058594 8.882812 20.058594 L 8.886719 20.058594 L 8.886719 20.132812 L 8.855469 20.132812 C 8.792969 20.132812 8.730469 20.136719 8.730469 20.226562 L 8.730469 21.15625 C 8.730469 21.246094 8.792969 21.253906 8.855469 21.253906 L 8.886719 21.253906 L 8.886719 21.320312 Z M 8.882812 21.320312 "/>
<path style=" stroke:none;fill-rule:evenodd;fill:rgb(100%,100%,100%);fill-opacity:1;" d="M 10.105469 20.964844 L 10.109375 20.960938 L 10.109375 20.289062 C 10.109375 20.140625 10.007812 20.121094 9.953125 20.121094 L 9.914062 20.121094 L 9.914062 20.070312 C 9.996094 20.070312 10.082031 20.074219 10.167969 20.074219 C 10.238281 20.074219 10.3125 20.070312 10.382812 20.070312 L 10.382812 20.121094 L 10.359375 20.121094 C 10.28125 20.121094 10.199219 20.136719 10.199219 20.351562 L 10.199219 21.164062 C 10.199219 21.222656 10.199219 21.285156 10.207031 21.34375 L 10.140625 21.34375 L 9.21875 20.316406 L 9.21875 21.050781 C 9.21875 21.207031 9.253906 21.257812 9.390625 21.257812 L 9.421875 21.257812 L 9.421875 21.316406 C 9.34375 21.316406 9.265625 21.308594 9.191406 21.308594 C 9.113281 21.308594 9.027344 21.316406 8.949219 21.316406 L 8.949219 21.257812 L 8.972656 21.257812 C 9.097656 21.257812 9.136719 21.179688 9.136719 21.03125 L 9.136719 20.285156 C 9.136719 20.183594 9.050781 20.125 8.972656 20.125 L 8.949219 20.125 L 8.949219 20.070312 C 9.015625 20.070312 9.085938 20.074219 9.152344 20.074219 C 9.210938 20.074219 9.261719 20.070312 9.308594 20.070312 Z M 10.105469 20.964844 "/>
<path style=" stroke:none;fill-rule:evenodd;fill:rgb(100%,100%,100%);fill-opacity:1;" d="M 10.097656 20.960938 Z M 10.105469 20.964844 L 10.109375 20.960938 Z M 10.140625 21.332031 L 10.199219 21.332031 C 10.191406 21.28125 10.191406 21.21875 10.191406 21.164062 L 10.191406 20.351562 C 10.191406 20.136719 10.28125 20.113281 10.359375 20.113281 L 10.375 20.113281 L 10.375 20.074219 C 10.308594 20.074219 10.234375 20.085938 10.160156 20.085938 C 10.082031 20.085938 10.003906 20.074219 9.925781 20.074219 L 9.925781 20.113281 L 9.953125 20.113281 C 10.007812 20.113281 10.117188 20.136719 10.117188 20.289062 L 10.117188 20.964844 L 10.109375 20.964844 L 10.105469 20.972656 L 9.308594 20.074219 C 9.257812 20.074219 9.207031 20.085938 9.152344 20.085938 C 9.085938 20.085938 9.015625 20.074219 8.957031 20.074219 L 8.957031 20.113281 L 8.972656 20.113281 C 9.058594 20.113281 9.140625 20.175781 9.140625 20.285156 L 9.140625 21.03125 C 9.140625 21.171875 9.101562 21.269531 8.972656 21.269531 L 8.957031 21.269531 L 8.957031 21.304688 C 9.035156 21.304688 9.113281 21.296875 9.191406 21.296875 C 9.265625 21.296875 9.339844 21.304688 9.410156 21.304688 L 9.410156 21.269531 L 9.390625 21.269531 C 9.25 21.269531 9.214844 21.207031 9.214844 21.050781 L 9.214844 20.292969 Z M 10.207031 21.347656 L 10.132812 21.347656 L 9.230469 20.339844 L 9.230469 21.050781 C 9.230469 21.207031 9.253906 21.253906 9.390625 21.253906 L 9.429688 21.253906 L 9.429688 21.320312 L 9.417969 21.320312 C 9.34375 21.320312 9.265625 21.316406 9.191406 21.316406 C 9.113281 21.316406 9.027344 21.320312 8.949219 21.320312 L 8.9375 21.320312 L 8.9375 21.253906 L 8.972656 21.253906 C 9.089844 21.253906 9.125 21.171875 9.125 21.03125 L 9.125 20.285156 C 9.125 20.1875 9.046875 20.132812 8.972656 20.132812 L 8.9375 20.132812 L 8.9375 20.0625 L 8.949219 20.0625 C 9.015625 20.0625 9.085938 20.070312 9.152344 20.070312 C 9.203125 20.070312 9.257812 20.0625 9.316406 20.0625 L 10.097656 20.949219 L 10.097656 20.289062 C 10.097656 20.148438 10.003906 20.132812 9.953125 20.132812 L 9.90625 20.132812 L 9.90625 20.0625 L 9.914062 20.0625 C 9.996094 20.0625 10.082031 20.070312 10.160156 20.070312 C 10.234375 20.070312 10.308594 20.0625 10.382812 20.0625 L 10.390625 20.0625 L 10.390625 20.132812 L 10.359375 20.132812 C 10.285156 20.132812 10.207031 20.136719 10.207031 20.351562 L 10.207031 21.164062 C 10.207031 21.222656 10.207031 21.285156 10.21875 21.335938 L 10.21875 21.347656 Z M 10.207031 21.347656 "/>
<path style=" stroke:none;fill-rule:evenodd;fill:rgb(100%,100%,100%);fill-opacity:1;" d="M 10.652344 20.160156 C 10.515625 20.160156 10.511719 20.1875 10.484375 20.324219 L 10.433594 20.324219 C 10.4375 20.273438 10.449219 20.222656 10.453125 20.171875 C 10.460938 20.121094 10.464844 20.070312 10.464844 20.019531 L 10.503906 20.019531 C 10.523438 20.070312 10.566406 20.070312 10.613281 20.070312 L 11.535156 20.070312 C 11.582031 20.070312 11.625 20.070312 11.632812 20.011719 L 11.671875 20.019531 C 11.667969 20.070312 11.660156 20.113281 11.65625 20.164062 C 11.648438 20.214844 11.648438 20.261719 11.648438 20.3125 L 11.597656 20.328125 C 11.59375 20.265625 11.582031 20.160156 11.464844 20.160156 L 11.171875 20.160156 L 11.171875 21.105469 C 11.171875 21.246094 11.230469 21.257812 11.324219 21.257812 L 11.355469 21.257812 L 11.355469 21.316406 C 11.28125 21.316406 11.160156 21.308594 11.0625 21.308594 C 10.957031 21.308594 10.832031 21.316406 10.757812 21.316406 L 10.757812 21.257812 L 10.792969 21.257812 C 10.894531 21.257812 10.945312 21.253906 10.945312 21.113281 L 10.945312 20.160156 Z M 10.652344 20.160156 "/>
<path style=" stroke:none;fill-rule:evenodd;fill:rgb(100%,100%,100%);fill-opacity:1;" d="M 11.355469 21.320312 C 11.28125 21.320312 11.160156 21.316406 11.0625 21.316406 C 10.957031 21.316406 10.832031 21.320312 10.765625 21.320312 L 10.753906 21.320312 L 10.753906 21.253906 L 10.796875 21.253906 C 10.894531 21.253906 10.933594 21.246094 10.933594 21.113281 L 10.933594 20.164062 L 10.652344 20.164062 L 10.652344 20.148438 L 10.949219 20.148438 L 10.949219 21.113281 C 10.949219 21.253906 10.894531 21.269531 10.796875 21.269531 L 10.769531 21.269531 L 10.769531 21.304688 C 10.835938 21.304688 10.960938 21.296875 11.0625 21.296875 C 11.160156 21.296875 11.277344 21.304688 11.34375 21.304688 L 11.34375 21.269531 L 11.320312 21.269531 C 11.230469 21.269531 11.164062 21.246094 11.164062 21.105469 L 11.164062 20.148438 L 11.464844 20.148438 C 11.585938 20.148438 11.597656 20.253906 11.605469 20.316406 L 11.644531 20.304688 C 11.644531 20.261719 11.644531 20.210938 11.648438 20.164062 C 11.648438 20.121094 11.660156 20.074219 11.667969 20.03125 L 11.636719 20.023438 C 11.632812 20.074219 11.582031 20.074219 11.535156 20.074219 L 10.605469 20.074219 C 10.5625 20.074219 10.515625 20.074219 10.5 20.023438 L 10.472656 20.023438 C 10.472656 20.074219 10.464844 20.121094 10.460938 20.171875 C 10.453125 20.222656 10.449219 20.265625 10.441406 20.3125 L 10.476562 20.3125 C 10.503906 20.1875 10.515625 20.148438 10.652344 20.148438 L 10.652344 20.164062 C 10.523438 20.171875 10.523438 20.1875 10.492188 20.324219 L 10.492188 20.328125 L 10.421875 20.328125 L 10.425781 20.316406 C 10.433594 20.273438 10.441406 20.222656 10.441406 20.164062 C 10.453125 20.121094 10.453125 20.070312 10.453125 20.019531 L 10.453125 20.007812 L 10.511719 20.007812 L 10.515625 20.011719 C 10.527344 20.058594 10.5625 20.058594 10.605469 20.0625 L 11.535156 20.0625 C 11.582031 20.058594 11.621094 20.058594 11.621094 20.011719 L 11.621094 20.007812 L 11.632812 20.007812 L 11.683594 20.011719 L 11.683594 20.023438 C 11.671875 20.070312 11.667969 20.121094 11.660156 20.164062 C 11.660156 20.214844 11.660156 20.261719 11.660156 20.3125 L 11.660156 20.316406 L 11.65625 20.316406 L 11.585938 20.339844 L 11.585938 20.328125 C 11.585938 20.261719 11.574219 20.164062 11.464844 20.164062 L 11.179688 20.164062 L 11.179688 21.105469 C 11.179688 21.242188 11.238281 21.253906 11.324219 21.253906 L 11.363281 21.253906 L 11.363281 21.320312 Z M 11.355469 21.320312 "/>
<path style=" stroke:none;fill-rule:evenodd;fill:rgb(100%,100%,100%);fill-opacity:1;" d="M 11.726562 21.257812 L 11.757812 21.257812 C 11.816406 21.257812 11.886719 21.253906 11.886719 21.15625 L 11.886719 20.226562 C 11.886719 20.132812 11.816406 20.121094 11.757812 20.121094 L 11.726562 20.121094 L 11.726562 20.070312 C 11.839844 20.070312 12.027344 20.074219 12.171875 20.074219 C 12.324219 20.074219 12.511719 20.070312 12.628906 20.070312 C 12.628906 20.148438 12.628906 20.265625 12.636719 20.339844 L 12.578125 20.355469 C 12.574219 20.238281 12.550781 20.148438 12.363281 20.148438 L 12.117188 20.148438 L 12.117188 20.617188 L 12.324219 20.617188 C 12.433594 20.617188 12.453125 20.554688 12.464844 20.457031 L 12.523438 20.457031 C 12.515625 20.527344 12.515625 20.597656 12.515625 20.667969 C 12.515625 20.734375 12.515625 20.800781 12.523438 20.871094 L 12.464844 20.878906 C 12.453125 20.773438 12.453125 20.707031 12.332031 20.707031 L 12.117188 20.707031 L 12.117188 21.117188 C 12.117188 21.234375 12.21875 21.234375 12.332031 21.234375 C 12.546875 21.234375 12.640625 21.21875 12.691406 21.015625 L 12.742188 21.03125 C 12.71875 21.125 12.699219 21.21875 12.6875 21.316406 C 12.566406 21.316406 12.363281 21.308594 12.207031 21.308594 C 12.042969 21.308594 11.828125 21.316406 11.726562 21.316406 Z M 11.726562 21.257812 "/>
<path style=" stroke:none;fill-rule:evenodd;fill:rgb(100%,100%,100%);fill-opacity:1;" d="M 12.675781 21.304688 C 12.691406 21.21875 12.714844 21.128906 12.738281 21.039062 L 12.699219 21.027344 C 12.648438 21.222656 12.546875 21.246094 12.332031 21.242188 C 12.21875 21.242188 12.105469 21.242188 12.105469 21.117188 L 12.105469 20.695312 L 12.332031 20.695312 C 12.453125 20.695312 12.464844 20.769531 12.476562 20.871094 L 12.511719 20.863281 C 12.511719 20.796875 12.511719 20.734375 12.511719 20.667969 C 12.511719 20.597656 12.511719 20.53125 12.511719 20.464844 L 12.476562 20.464844 C 12.464844 20.558594 12.4375 20.621094 12.324219 20.621094 L 12.105469 20.621094 L 12.105469 20.136719 L 12.363281 20.136719 C 12.550781 20.136719 12.578125 20.234375 12.585938 20.34375 L 12.625 20.335938 C 12.625 20.285156 12.617188 20.222656 12.617188 20.160156 C 12.617188 20.132812 12.617188 20.101562 12.625 20.074219 C 12.5 20.074219 12.320312 20.085938 12.171875 20.085938 C 12.027344 20.085938 11.847656 20.074219 11.738281 20.074219 L 11.738281 20.113281 L 11.757812 20.113281 C 11.816406 20.113281 11.898438 20.125 11.898438 20.226562 L 11.898438 21.15625 C 11.898438 21.257812 11.816406 21.269531 11.757812 21.269531 L 11.738281 21.269531 L 11.738281 21.304688 C 11.839844 21.304688 12.050781 21.296875 12.207031 21.296875 C 12.359375 21.296875 12.5625 21.304688 12.675781 21.304688 M 12.6875 21.320312 C 12.566406 21.320312 12.363281 21.316406 12.207031 21.316406 C 12.042969 21.316406 11.828125 21.320312 11.726562 21.320312 L 11.722656 21.320312 L 11.722656 21.253906 L 11.757812 21.253906 C 11.820312 21.253906 11.878906 21.246094 11.878906 21.15625 L 11.878906 20.222656 C 11.878906 20.136719 11.820312 20.132812 11.757812 20.132812 L 11.722656 20.132812 L 11.722656 20.0625 L 11.726562 20.0625 C 11.839844 20.0625 12.019531 20.070312 12.171875 20.070312 C 12.324219 20.070312 12.507812 20.0625 12.628906 20.0625 L 12.636719 20.0625 L 12.636719 20.070312 C 12.636719 20.097656 12.636719 20.125 12.636719 20.160156 C 12.636719 20.222656 12.636719 20.289062 12.640625 20.339844 L 12.640625 20.34375 L 12.636719 20.351562 L 12.574219 20.367188 L 12.574219 20.355469 C 12.5625 20.238281 12.546875 20.160156 12.363281 20.152344 L 12.121094 20.152344 L 12.121094 20.605469 L 12.324219 20.605469 C 12.425781 20.605469 12.449219 20.554688 12.460938 20.457031 L 12.460938 20.453125 L 12.527344 20.453125 L 12.527344 20.457031 C 12.527344 20.527344 12.523438 20.597656 12.523438 20.667969 C 12.523438 20.734375 12.527344 20.800781 12.527344 20.871094 L 12.527344 20.875 L 12.523438 20.875 L 12.460938 20.890625 L 12.460938 20.878906 C 12.449219 20.773438 12.445312 20.710938 12.324219 20.710938 L 12.121094 20.710938 L 12.121094 21.117188 C 12.121094 21.230469 12.21875 21.226562 12.332031 21.230469 C 12.546875 21.226562 12.636719 21.214844 12.6875 21.015625 L 12.6875 21.011719 L 12.699219 21.011719 L 12.753906 21.023438 L 12.753906 21.035156 C 12.726562 21.128906 12.707031 21.21875 12.691406 21.316406 L 12.691406 21.320312 Z M 12.6875 21.320312 "/>
<path style=" stroke:none;fill-rule:evenodd;fill:rgb(100%,100%,100%);fill-opacity:1;" d="M 13.214844 20.671875 L 13.300781 20.671875 C 13.480469 20.671875 13.578125 20.605469 13.578125 20.394531 C 13.578125 20.234375 13.476562 20.132812 13.316406 20.132812 C 13.261719 20.132812 13.238281 20.136719 13.214844 20.140625 Z M 12.984375 20.253906 C 12.984375 20.125 12.910156 20.121094 12.859375 20.121094 L 12.828125 20.121094 L 12.828125 20.070312 C 12.882812 20.070312 12.996094 20.074219 13.101562 20.074219 C 13.210938 20.074219 13.292969 20.070312 13.390625 20.070312 C 13.617188 20.070312 13.8125 20.132812 13.8125 20.386719 C 13.8125 20.542969 13.707031 20.644531 13.566406 20.695312 L 13.871094 21.152344 C 13.921875 21.230469 13.960938 21.253906 14.042969 21.257812 L 14.042969 21.316406 C 13.988281 21.316406 13.925781 21.308594 13.871094 21.308594 C 13.8125 21.308594 13.757812 21.316406 13.699219 21.316406 C 13.566406 21.132812 13.445312 20.941406 13.328125 20.734375 L 13.214844 20.734375 L 13.214844 21.117188 C 13.214844 21.257812 13.277344 21.257812 13.355469 21.257812 L 13.390625 21.257812 L 13.390625 21.316406 C 13.289062 21.316406 13.1875 21.308594 13.085938 21.308594 C 13 21.308594 12.917969 21.316406 12.828125 21.316406 L 12.828125 21.257812 L 12.859375 21.257812 C 12.921875 21.257812 12.984375 21.230469 12.984375 21.164062 Z M 12.984375 20.253906 "/>
<path style=" stroke:none;fill-rule:evenodd;fill:rgb(100%,100%,100%);fill-opacity:1;" d="M 13.300781 20.667969 C 13.476562 20.660156 13.566406 20.597656 13.570312 20.394531 C 13.566406 20.238281 13.46875 20.140625 13.316406 20.140625 C 13.265625 20.140625 13.242188 20.140625 13.222656 20.148438 L 13.222656 20.667969 Z M 13.214844 20.679688 L 13.203125 20.679688 L 13.203125 20.132812 L 13.210938 20.132812 C 13.238281 20.132812 13.261719 20.125 13.316406 20.125 C 13.476562 20.125 13.582031 20.234375 13.582031 20.394531 C 13.582031 20.605469 13.480469 20.679688 13.300781 20.679688 Z M 13.214844 20.726562 L 13.335938 20.726562 L 13.339844 20.734375 C 13.453125 20.9375 13.570312 21.128906 13.699219 21.308594 C 13.757812 21.308594 13.8125 21.296875 13.871094 21.296875 C 13.925781 21.296875 13.984375 21.304688 14.039062 21.304688 L 14.039062 21.269531 C 13.953125 21.257812 13.914062 21.230469 13.863281 21.15625 L 13.554688 20.695312 L 13.566406 20.6875 C 13.699219 20.632812 13.808594 20.542969 13.808594 20.386719 C 13.808594 20.136719 13.617188 20.082031 13.390625 20.074219 C 13.292969 20.074219 13.210938 20.085938 13.101562 20.085938 C 12.996094 20.085938 12.894531 20.074219 12.832031 20.074219 L 12.832031 20.113281 L 12.859375 20.113281 C 12.917969 20.113281 12.992188 20.125 12.992188 20.261719 L 12.992188 21.164062 C 12.992188 21.234375 12.929688 21.269531 12.859375 21.269531 L 12.832031 21.269531 L 12.832031 21.308594 C 12.917969 21.308594 13 21.296875 13.085938 21.296875 C 13.183594 21.296875 13.285156 21.308594 13.386719 21.308594 L 13.386719 21.269531 L 13.355469 21.269531 C 13.277344 21.269531 13.203125 21.257812 13.203125 21.117188 L 13.203125 20.726562 Z M 14.042969 21.320312 C 13.984375 21.320312 13.925781 21.316406 13.871094 21.316406 C 13.8125 21.316406 13.757812 21.320312 13.695312 21.320312 C 13.558594 21.140625 13.441406 20.949219 13.328125 20.746094 L 13.222656 20.746094 L 13.222656 21.117188 C 13.222656 21.253906 13.277344 21.253906 13.355469 21.253906 L 13.402344 21.253906 L 13.402344 21.320312 L 13.390625 21.320312 C 13.289062 21.320312 13.1875 21.316406 13.085938 21.316406 C 13 21.316406 12.917969 21.320312 12.828125 21.320312 L 12.820312 21.320312 L 12.820312 21.253906 L 12.859375 21.253906 C 12.921875 21.253906 12.980469 21.222656 12.980469 21.164062 L 12.980469 20.253906 C 12.972656 20.132812 12.917969 20.132812 12.859375 20.132812 L 12.820312 20.132812 L 12.820312 20.0625 L 12.828125 20.0625 C 12.882812 20.0625 12.996094 20.070312 13.101562 20.070312 C 13.210938 20.070312 13.292969 20.0625 13.390625 20.0625 C 13.617188 20.0625 13.824219 20.125 13.824219 20.386719 C 13.824219 20.542969 13.71875 20.644531 13.578125 20.699219 L 13.875 21.152344 C 13.925781 21.226562 13.960938 21.242188 14.042969 21.253906 L 14.050781 21.253906 L 14.050781 21.320312 Z M 14.042969 21.320312 "/>
<path style=" stroke:none;fill-rule:evenodd;fill:rgb(100%,100%,100%);fill-opacity:1;" d="M 15.257812 20.964844 L 15.261719 20.960938 L 15.261719 20.289062 C 15.261719 20.140625 15.15625 20.121094 15.105469 20.121094 L 15.066406 20.121094 L 15.066406 20.070312 C 15.148438 20.070312 15.234375 20.074219 15.3125 20.074219 C 15.386719 20.074219 15.460938 20.070312 15.53125 20.070312 L 15.53125 20.121094 L 15.511719 20.121094 C 15.429688 20.121094 15.351562 20.136719 15.351562 20.351562 L 15.351562 21.164062 C 15.351562 21.222656 15.351562 21.285156 15.359375 21.34375 L 15.289062 21.34375 L 14.371094 20.316406 L 14.371094 21.050781 C 14.371094 21.207031 14.40625 21.257812 14.539062 21.257812 L 14.574219 21.257812 L 14.574219 21.316406 C 14.496094 21.316406 14.417969 21.308594 14.34375 21.308594 C 14.257812 21.308594 14.179688 21.316406 14.101562 21.316406 L 14.101562 21.257812 L 14.125 21.257812 C 14.246094 21.257812 14.285156 21.179688 14.285156 21.03125 L 14.285156 20.285156 C 14.285156 20.183594 14.203125 20.125 14.125 20.125 L 14.101562 20.125 L 14.101562 20.070312 C 14.167969 20.070312 14.234375 20.074219 14.304688 20.074219 C 14.355469 20.074219 14.410156 20.070312 14.460938 20.070312 Z M 15.257812 20.964844 "/>
<path style=" stroke:none;fill-rule:evenodd;fill:rgb(100%,100%,100%);fill-opacity:1;" d="M 15.25 20.960938 Z M 15.257812 20.964844 L 15.261719 20.960938 Z M 15.289062 21.332031 L 15.351562 21.332031 C 15.339844 21.28125 15.339844 21.21875 15.339844 21.164062 L 15.339844 20.351562 C 15.339844 20.136719 15.429688 20.113281 15.507812 20.113281 L 15.527344 20.113281 L 15.527344 20.074219 C 15.453125 20.074219 15.386719 20.085938 15.3125 20.085938 C 15.234375 20.085938 15.15625 20.074219 15.070312 20.074219 L 15.070312 20.113281 L 15.105469 20.113281 C 15.160156 20.113281 15.265625 20.136719 15.265625 20.289062 L 15.261719 20.964844 L 15.257812 20.972656 L 14.460938 20.074219 C 14.410156 20.074219 14.355469 20.085938 14.304688 20.085938 C 14.234375 20.085938 14.167969 20.074219 14.105469 20.074219 L 14.105469 20.113281 L 14.125 20.113281 C 14.207031 20.113281 14.292969 20.175781 14.292969 20.285156 L 14.292969 21.03125 C 14.292969 21.179688 14.253906 21.269531 14.125 21.269531 L 14.105469 21.269531 L 14.105469 21.304688 C 14.183594 21.304688 14.265625 21.296875 14.335938 21.296875 C 14.417969 21.296875 14.488281 21.304688 14.5625 21.304688 L 14.5625 21.269531 L 14.539062 21.269531 C 14.398438 21.269531 14.367188 21.207031 14.367188 21.050781 L 14.367188 20.292969 Z M 15.359375 21.347656 L 15.285156 21.347656 L 14.382812 20.339844 L 14.382812 21.050781 C 14.382812 21.207031 14.40625 21.253906 14.539062 21.253906 L 14.578125 21.253906 L 14.578125 21.320312 L 14.570312 21.320312 C 14.496094 21.320312 14.417969 21.316406 14.34375 21.316406 C 14.257812 21.316406 14.179688 21.320312 14.101562 21.320312 L 14.089844 21.320312 L 14.089844 21.253906 L 14.125 21.253906 C 14.242188 21.253906 14.277344 21.171875 14.277344 21.03125 L 14.277344 20.285156 C 14.277344 20.1875 14.195312 20.132812 14.125 20.132812 L 14.089844 20.132812 L 14.089844 20.0625 L 14.101562 20.0625 C 14.167969 20.0625 14.234375 20.070312 14.304688 20.070312 C 14.355469 20.070312 14.40625 20.0625 14.46875 20.0625 L 15.25 20.949219 L 15.25 20.289062 C 15.25 20.148438 15.15625 20.132812 15.105469 20.132812 L 15.058594 20.132812 L 15.058594 20.0625 L 15.066406 20.0625 C 15.148438 20.0625 15.234375 20.070312 15.3125 20.070312 C 15.386719 20.070312 15.460938 20.0625 15.53125 20.0625 L 15.542969 20.0625 L 15.542969 20.132812 L 15.507812 20.132812 C 15.4375 20.132812 15.359375 20.136719 15.359375 20.351562 L 15.359375 21.164062 C 15.359375 21.222656 15.359375 21.285156 15.367188 21.335938 L 15.367188 21.347656 Z M 15.359375 21.347656 "/>
<path style=" stroke:none;fill-rule:evenodd;fill:rgb(100%,100%,100%);fill-opacity:1;" d="M 16.078125 20.265625 L 15.910156 20.773438 L 16.242188 20.773438 Z M 15.820312 21.0625 C 15.804688 21.117188 15.78125 21.167969 15.78125 21.195312 C 15.78125 21.253906 15.859375 21.257812 15.914062 21.257812 L 15.9375 21.257812 L 15.9375 21.316406 C 15.863281 21.308594 15.792969 21.308594 15.71875 21.308594 C 15.65625 21.308594 15.589844 21.308594 15.527344 21.316406 L 15.527344 21.257812 L 15.539062 21.257812 C 15.605469 21.257812 15.667969 21.21875 15.691406 21.144531 L 15.976562 20.328125 C 16 20.261719 16.035156 20.171875 16.046875 20.101562 C 16.101562 20.085938 16.175781 20.050781 16.207031 20.03125 C 16.214844 20.023438 16.214844 20.023438 16.21875 20.023438 C 16.226562 20.023438 16.230469 20.023438 16.230469 20.03125 C 16.238281 20.046875 16.242188 20.058594 16.246094 20.074219 L 16.574219 21.011719 C 16.597656 21.074219 16.621094 21.132812 16.644531 21.191406 C 16.664062 21.242188 16.699219 21.257812 16.761719 21.257812 L 16.773438 21.257812 L 16.773438 21.316406 C 16.691406 21.308594 16.609375 21.308594 16.523438 21.308594 C 16.441406 21.308594 16.347656 21.308594 16.257812 21.316406 L 16.257812 21.257812 L 16.277344 21.257812 C 16.316406 21.257812 16.390625 21.253906 16.390625 21.207031 C 16.390625 21.183594 16.371094 21.140625 16.351562 21.078125 L 16.28125 20.875 L 15.875 20.875 Z M 15.820312 21.0625 "/>
<path style=" stroke:none;fill-rule:evenodd;fill:rgb(100%,100%,100%);fill-opacity:1;" d="M 16.074219 20.273438 L 16.078125 20.273438 Z M 15.921875 20.769531 L 16.238281 20.769531 L 16.078125 20.289062 Z M 15.898438 20.78125 L 16.074219 20.261719 L 16.078125 20.261719 L 16.078125 20.265625 L 16.078125 20.261719 L 16.085938 20.261719 L 16.253906 20.78125 Z M 16.265625 21.304688 C 16.355469 21.304688 16.441406 21.296875 16.523438 21.296875 C 16.609375 21.296875 16.6875 21.304688 16.765625 21.304688 L 16.765625 21.269531 L 16.761719 21.269531 C 16.699219 21.269531 16.660156 21.246094 16.636719 21.191406 C 16.613281 21.140625 16.59375 21.074219 16.570312 21.011719 L 16.242188 20.074219 C 16.238281 20.0625 16.230469 20.046875 16.226562 20.035156 C 16.226562 20.03125 16.226562 20.03125 16.226562 20.03125 L 16.21875 20.03125 C 16.214844 20.03125 16.214844 20.035156 16.207031 20.035156 C 16.175781 20.058594 16.101562 20.09375 16.050781 20.101562 C 16.039062 20.171875 16.003906 20.261719 15.984375 20.328125 L 15.703125 21.144531 C 15.671875 21.222656 15.609375 21.269531 15.539062 21.269531 L 15.53125 21.269531 L 15.53125 21.304688 C 15.59375 21.304688 15.65625 21.296875 15.71875 21.296875 C 15.785156 21.296875 15.859375 21.304688 15.925781 21.304688 L 15.925781 21.269531 L 15.914062 21.269531 C 15.859375 21.269531 15.773438 21.257812 15.773438 21.195312 C 15.773438 21.164062 15.796875 21.117188 15.8125 21.054688 L 15.820312 21.0625 L 15.8125 21.054688 L 15.871094 20.863281 L 16.289062 20.863281 L 16.359375 21.078125 C 16.378906 21.132812 16.394531 21.179688 16.394531 21.207031 C 16.394531 21.265625 16.316406 21.269531 16.277344 21.269531 L 16.265625 21.269531 Z M 16.773438 21.320312 C 16.691406 21.320312 16.609375 21.316406 16.523438 21.316406 C 16.441406 21.316406 16.347656 21.320312 16.257812 21.320312 L 16.246094 21.320312 L 16.246094 21.253906 L 16.277344 21.253906 C 16.320312 21.253906 16.378906 21.242188 16.378906 21.207031 C 16.382812 21.191406 16.367188 21.140625 16.34375 21.082031 L 16.277344 20.878906 L 15.882812 20.878906 L 15.832031 21.0625 C 15.808594 21.125 15.792969 21.167969 15.792969 21.195312 C 15.792969 21.242188 15.859375 21.253906 15.914062 21.253906 L 15.945312 21.253906 L 15.945312 21.320312 L 15.933594 21.320312 C 15.863281 21.320312 15.792969 21.316406 15.71875 21.316406 C 15.65625 21.316406 15.59375 21.320312 15.527344 21.320312 L 15.519531 21.320312 L 15.519531 21.253906 L 15.539062 21.253906 C 15.605469 21.253906 15.660156 21.214844 15.683594 21.140625 L 15.972656 20.324219 C 15.996094 20.253906 16.027344 20.171875 16.039062 20.097656 C 16.097656 20.082031 16.167969 20.042969 16.203125 20.019531 C 16.207031 20.019531 16.214844 20.019531 16.21875 20.019531 C 16.226562 20.019531 16.238281 20.019531 16.242188 20.03125 C 16.246094 20.042969 16.253906 20.058594 16.257812 20.074219 L 16.585938 21.003906 C 16.609375 21.066406 16.625 21.132812 16.648438 21.183594 C 16.671875 21.234375 16.703125 21.253906 16.761719 21.253906 L 16.777344 21.253906 L 16.777344 21.320312 Z M 16.773438 21.320312 "/>
<path style=" stroke:none;fill-rule:evenodd;fill:rgb(100%,100%,100%);fill-opacity:1;" d="M 16.851562 20.160156 C 16.714844 20.160156 16.710938 20.1875 16.683594 20.324219 L 16.632812 20.324219 C 16.636719 20.273438 16.648438 20.222656 16.652344 20.171875 C 16.660156 20.121094 16.660156 20.070312 16.660156 20.019531 L 16.703125 20.019531 C 16.722656 20.070312 16.765625 20.070312 16.8125 20.070312 L 17.734375 20.070312 C 17.78125 20.070312 17.824219 20.070312 17.832031 20.011719 L 17.871094 20.019531 C 17.867188 20.070312 17.859375 20.113281 17.855469 20.164062 C 17.847656 20.214844 17.847656 20.261719 17.847656 20.3125 L 17.796875 20.328125 C 17.792969 20.265625 17.78125 20.160156 17.664062 20.160156 L 17.371094 20.160156 L 17.371094 21.105469 C 17.371094 21.246094 17.433594 21.257812 17.515625 21.257812 L 17.554688 21.257812 L 17.554688 21.316406 C 17.480469 21.316406 17.359375 21.308594 17.261719 21.308594 C 17.15625 21.308594 17.03125 21.316406 16.957031 21.316406 L 16.957031 21.257812 L 16.992188 21.257812 C 17.09375 21.257812 17.144531 21.253906 17.144531 21.113281 L 17.144531 20.160156 Z M 16.851562 20.160156 "/>
<path style=" stroke:none;fill-rule:evenodd;fill:rgb(100%,100%,100%);fill-opacity:1;" d="M 17.554688 21.320312 C 17.480469 21.320312 17.359375 21.316406 17.261719 21.316406 C 17.15625 21.316406 17.03125 21.320312 16.957031 21.320312 L 16.953125 21.320312 L 16.953125 21.253906 L 16.992188 21.253906 C 17.09375 21.253906 17.132812 21.246094 17.132812 21.113281 L 17.132812 20.164062 L 16.851562 20.164062 L 16.851562 20.148438 L 17.148438 20.148438 L 17.148438 21.113281 C 17.148438 21.253906 17.09375 21.269531 16.992188 21.269531 L 16.96875 21.269531 L 16.96875 21.304688 C 17.039062 21.304688 17.160156 21.296875 17.261719 21.296875 C 17.359375 21.296875 17.476562 21.304688 17.542969 21.304688 L 17.542969 21.269531 L 17.523438 21.269531 C 17.433594 21.269531 17.363281 21.246094 17.363281 21.105469 L 17.363281 20.148438 L 17.664062 20.148438 C 17.785156 20.148438 17.796875 20.25 17.804688 20.316406 L 17.84375 20.304688 C 17.84375 20.261719 17.84375 20.210938 17.84375 20.164062 C 17.847656 20.121094 17.859375 20.074219 17.867188 20.03125 L 17.835938 20.023438 C 17.824219 20.074219 17.78125 20.074219 17.734375 20.074219 L 16.804688 20.074219 C 16.761719 20.074219 16.714844 20.074219 16.699219 20.023438 L 16.671875 20.023438 C 16.671875 20.074219 16.664062 20.121094 16.660156 20.171875 C 16.652344 20.222656 16.648438 20.265625 16.636719 20.3125 L 16.675781 20.3125 C 16.699219 20.1875 16.714844 20.148438 16.851562 20.148438 L 16.851562 20.164062 C 16.714844 20.171875 16.722656 20.1875 16.695312 20.324219 L 16.695312 20.328125 L 16.621094 20.328125 L 16.625 20.316406 C 16.632812 20.265625 16.636719 20.222656 16.644531 20.164062 C 16.652344 20.121094 16.652344 20.070312 16.652344 20.019531 L 16.652344 20.007812 L 16.710938 20.007812 L 16.714844 20.011719 C 16.726562 20.058594 16.761719 20.058594 16.804688 20.058594 L 16.8125 20.0625 L 17.734375 20.0625 C 17.78125 20.058594 17.820312 20.058594 17.820312 20.011719 L 17.820312 20.007812 L 17.832031 20.007812 L 17.882812 20.011719 L 17.882812 20.023438 C 17.871094 20.070312 17.867188 20.121094 17.859375 20.164062 C 17.855469 20.214844 17.855469 20.261719 17.855469 20.3125 L 17.855469 20.316406 L 17.785156 20.339844 L 17.785156 20.328125 C 17.78125 20.261719 17.777344 20.164062 17.664062 20.164062 L 17.382812 20.164062 L 17.382812 21.105469 C 17.382812 21.242188 17.433594 21.253906 17.523438 21.253906 L 17.5625 21.253906 L 17.5625 21.320312 Z M 17.554688 21.320312 "/>
<path style=" stroke:none;fill-rule:evenodd;fill:rgb(100%,100%,100%);fill-opacity:1;" d="M 17.9375 21.257812 L 17.960938 21.257812 C 18.027344 21.257812 18.097656 21.253906 18.097656 21.15625 L 18.097656 20.226562 C 18.097656 20.132812 18.027344 20.121094 17.960938 20.121094 L 17.9375 20.121094 L 17.9375 20.070312 C 18.007812 20.070312 18.113281 20.074219 18.203125 20.074219 C 18.292969 20.074219 18.394531 20.070312 18.480469 20.070312 L 18.480469 20.121094 L 18.457031 20.121094 C 18.390625 20.121094 18.320312 20.132812 18.320312 20.226562 L 18.320312 21.15625 C 18.320312 21.253906 18.390625 21.257812 18.457031 21.257812 L 18.480469 21.257812 L 18.480469 21.316406 C 18.394531 21.316406 18.289062 21.308594 18.199219 21.308594 C 18.113281 21.308594 18.007812 21.316406 17.9375 21.316406 Z M 17.9375 21.257812 "/>
<path style=" stroke:none;fill-rule:evenodd;fill:rgb(100%,100%,100%);fill-opacity:1;" d="M 18.472656 21.304688 L 18.472656 21.269531 L 18.457031 21.269531 C 18.394531 21.269531 18.316406 21.257812 18.316406 21.15625 L 18.316406 20.226562 C 18.316406 20.125 18.394531 20.113281 18.457031 20.113281 L 18.472656 20.113281 L 18.472656 20.074219 C 18.390625 20.074219 18.289062 20.085938 18.203125 20.085938 C 18.117188 20.085938 18.019531 20.074219 17.945312 20.074219 L 17.945312 20.113281 L 17.960938 20.113281 C 18.023438 20.113281 18.101562 20.125 18.101562 20.226562 L 18.101562 21.15625 C 18.101562 21.257812 18.023438 21.269531 17.960938 21.269531 L 17.945312 21.269531 L 17.945312 21.304688 C 18.011719 21.304688 18.113281 21.296875 18.199219 21.296875 C 18.289062 21.296875 18.390625 21.304688 18.472656 21.304688 M 18.480469 21.320312 C 18.394531 21.320312 18.289062 21.316406 18.199219 21.316406 C 18.113281 21.316406 18.007812 21.320312 17.9375 21.320312 L 17.925781 21.320312 L 17.925781 21.253906 L 17.960938 21.253906 C 18.027344 21.253906 18.085938 21.246094 18.085938 21.15625 L 18.085938 20.222656 C 18.085938 20.136719 18.027344 20.132812 17.960938 20.132812 L 17.925781 20.132812 L 17.925781 20.0625 L 17.9375 20.0625 C 18.007812 20.0625 18.113281 20.070312 18.203125 20.070312 C 18.289062 20.070312 18.394531 20.0625 18.480469 20.0625 L 18.492188 20.0625 L 18.492188 20.132812 L 18.457031 20.132812 C 18.390625 20.132812 18.332031 20.136719 18.332031 20.226562 L 18.332031 21.15625 C 18.332031 21.246094 18.390625 21.253906 18.457031 21.253906 L 18.492188 21.253906 L 18.492188 21.320312 Z M 18.480469 21.320312 "/>
<path style=" stroke:none;fill-rule:evenodd;fill:rgb(100%,100%,100%);fill-opacity:1;" d="M 19.21875 21.265625 C 19.566406 21.265625 19.625 20.960938 19.625 20.695312 C 19.625 20.4375 19.488281 20.121094 19.191406 20.121094 C 18.878906 20.121094 18.785156 20.402344 18.785156 20.636719 C 18.785156 20.960938 18.929688 21.265625 19.21875 21.265625 M 19.195312 20.042969 C 19.574219 20.042969 19.878906 20.277344 19.878906 20.65625 C 19.878906 21.066406 19.585938 21.34375 19.203125 21.34375 C 18.824219 21.34375 18.535156 21.082031 18.535156 20.699219 C 18.535156 20.328125 18.824219 20.042969 19.195312 20.042969 Z M 19.195312 20.042969 "/>
<path style=" stroke:none;fill-rule:evenodd;fill:rgb(100%,100%,100%);fill-opacity:1;" d="M 18.777344 20.636719 C 18.777344 20.394531 18.867188 20.113281 19.191406 20.113281 C 19.496094 20.113281 19.636719 20.433594 19.636719 20.695312 C 19.636719 20.960938 19.574219 21.269531 19.21875 21.269531 L 19.21875 21.253906 C 19.5625 21.253906 19.617188 20.960938 19.617188 20.695312 C 19.617188 20.433594 19.476562 20.132812 19.191406 20.125 C 18.886719 20.132812 18.796875 20.402344 18.796875 20.636719 C 18.796875 20.953125 18.9375 21.253906 19.21875 21.253906 L 19.21875 21.269531 C 18.925781 21.269531 18.777344 20.960938 18.777344 20.636719 M 18.523438 20.699219 C 18.53125 20.324219 18.816406 20.035156 19.195312 20.035156 L 19.195312 20.050781 C 18.828125 20.050781 18.542969 20.335938 18.542969 20.699219 C 18.542969 21.078125 18.828125 21.332031 19.203125 21.332031 C 19.578125 21.332031 19.867188 21.0625 19.871094 20.65625 C 19.871094 20.285156 19.574219 20.050781 19.195312 20.050781 L 19.195312 20.035156 C 19.578125 20.035156 19.882812 20.273438 19.882812 20.65625 C 19.882812 21.074219 19.585938 21.347656 19.203125 21.347656 C 18.816406 21.347656 18.53125 21.089844 18.523438 20.699219 Z M 18.523438 20.699219 "/>
<path style=" stroke:none;fill-rule:evenodd;fill:rgb(100%,100%,100%);fill-opacity:1;" d="M 21.078125 20.964844 L 21.082031 20.960938 L 21.082031 20.289062 C 21.082031 20.140625 20.980469 20.121094 20.925781 20.121094 L 20.886719 20.121094 L 20.886719 20.070312 C 20.972656 20.070312 21.054688 20.074219 21.140625 20.074219 C 21.214844 20.074219 21.285156 20.070312 21.359375 20.070312 L 21.359375 20.121094 L 21.332031 20.121094 C 21.253906 20.121094 21.171875 20.136719 21.171875 20.351562 L 21.171875 21.164062 C 21.171875 21.222656 21.171875 21.285156 21.183594 21.34375 L 21.117188 21.34375 L 20.199219 20.316406 L 20.199219 21.050781 C 20.199219 21.207031 20.226562 21.257812 20.363281 21.257812 L 20.394531 21.257812 L 20.394531 21.316406 C 20.316406 21.316406 20.238281 21.308594 20.164062 21.308594 C 20.085938 21.308594 20 21.316406 19.921875 21.316406 L 19.921875 21.257812 L 19.945312 21.257812 C 20.070312 21.257812 20.109375 21.179688 20.109375 21.03125 L 20.109375 20.285156 C 20.109375 20.183594 20.023438 20.125 19.945312 20.125 L 19.921875 20.125 L 19.921875 20.070312 C 19.992188 20.070312 20.058594 20.074219 20.125 20.074219 C 20.183594 20.074219 20.234375 20.070312 20.285156 20.070312 Z M 21.078125 20.964844 "/>
<path style=" stroke:none;fill-rule:evenodd;fill:rgb(100%,100%,100%);fill-opacity:1;" d="M 21.074219 20.960938 Z M 21.078125 20.964844 L 21.082031 20.960938 Z M 21.113281 21.332031 L 21.171875 21.332031 C 21.164062 21.28125 21.164062 21.21875 21.164062 21.164062 L 21.164062 20.351562 C 21.164062 20.136719 21.253906 20.113281 21.332031 20.113281 L 21.347656 20.113281 L 21.347656 20.074219 C 21.28125 20.074219 21.207031 20.085938 21.132812 20.085938 C 21.054688 20.085938 20.976562 20.074219 20.898438 20.074219 L 20.898438 20.113281 L 20.925781 20.113281 C 20.980469 20.113281 21.089844 20.136719 21.089844 20.289062 L 21.089844 20.964844 L 21.082031 20.964844 L 21.078125 20.972656 L 20.285156 20.074219 C 20.234375 20.074219 20.183594 20.085938 20.125 20.085938 C 20.058594 20.085938 19.996094 20.074219 19.929688 20.074219 L 19.929688 20.113281 L 19.945312 20.113281 C 20.03125 20.113281 20.113281 20.175781 20.113281 20.285156 L 20.113281 21.03125 C 20.113281 21.171875 20.074219 21.269531 19.945312 21.269531 L 19.929688 21.269531 L 19.929688 21.304688 C 20.007812 21.304688 20.085938 21.296875 20.164062 21.296875 C 20.238281 21.296875 20.3125 21.304688 20.382812 21.304688 L 20.382812 21.269531 L 20.363281 21.269531 C 20.222656 21.269531 20.1875 21.207031 20.1875 21.050781 L 20.1875 20.292969 Z M 21.179688 21.347656 L 21.105469 21.347656 L 20.203125 20.339844 L 20.203125 21.050781 C 20.203125 21.207031 20.226562 21.253906 20.363281 21.253906 L 20.402344 21.253906 L 20.402344 21.320312 L 20.394531 21.320312 C 20.316406 21.320312 20.238281 21.316406 20.164062 21.316406 C 20.085938 21.316406 20 21.320312 19.921875 21.320312 L 19.910156 21.320312 L 19.910156 21.253906 L 19.945312 21.253906 C 20.0625 21.253906 20.097656 21.171875 20.097656 21.03125 L 20.097656 20.285156 C 20.097656 20.1875 20.019531 20.132812 19.945312 20.132812 L 19.910156 20.132812 L 19.910156 20.0625 L 19.921875 20.0625 C 19.988281 20.0625 20.058594 20.070312 20.125 20.070312 C 20.175781 20.070312 20.234375 20.0625 20.289062 20.0625 L 21.074219 20.949219 L 21.074219 20.289062 C 21.074219 20.148438 20.976562 20.132812 20.925781 20.132812 L 20.878906 20.132812 L 20.878906 20.0625 L 20.886719 20.0625 C 20.96875 20.0625 21.054688 20.070312 21.132812 20.070312 C 21.207031 20.070312 21.28125 20.0625 21.359375 20.0625 L 21.367188 20.0625 L 21.367188 20.132812 L 21.332031 20.132812 C 21.257812 20.132812 21.179688 20.136719 21.179688 20.351562 L 21.179688 21.164062 C 21.179688 21.222656 21.179688 21.285156 21.191406 21.335938 L 21.191406 21.347656 Z M 21.179688 21.347656 "/>
<path style=" stroke:none;fill-rule:evenodd;fill:rgb(100%,100%,100%);fill-opacity:1;" d="M 21.90625 20.265625 L 21.902344 20.265625 L 21.738281 20.773438 L 22.070312 20.773438 Z M 21.640625 21.0625 C 21.625 21.117188 21.601562 21.167969 21.601562 21.195312 C 21.601562 21.253906 21.679688 21.257812 21.738281 21.257812 L 21.757812 21.257812 L 21.757812 21.316406 C 21.6875 21.308594 21.613281 21.308594 21.539062 21.308594 C 21.476562 21.308594 21.414062 21.308594 21.347656 21.316406 L 21.347656 21.257812 L 21.359375 21.257812 C 21.425781 21.257812 21.488281 21.21875 21.515625 21.144531 L 21.800781 20.328125 C 21.820312 20.261719 21.855469 20.171875 21.867188 20.101562 C 21.921875 20.085938 21.996094 20.050781 22.03125 20.03125 C 22.035156 20.023438 22.035156 20.023438 22.042969 20.023438 C 22.046875 20.023438 22.054688 20.023438 22.054688 20.03125 C 22.058594 20.046875 22.0625 20.058594 22.070312 20.074219 L 22.402344 21.011719 C 22.417969 21.074219 22.441406 21.132812 22.464844 21.191406 C 22.488281 21.242188 22.527344 21.257812 22.582031 21.257812 L 22.59375 21.257812 L 22.59375 21.316406 C 22.515625 21.308594 22.4375 21.308594 22.347656 21.308594 C 22.261719 21.308594 22.171875 21.308594 22.082031 21.316406 L 22.082031 21.257812 L 22.097656 21.257812 C 22.144531 21.257812 22.210938 21.253906 22.210938 21.207031 C 22.210938 21.183594 22.195312 21.140625 22.175781 21.078125 L 22.105469 20.875 L 21.703125 20.875 Z M 21.640625 21.0625 "/>
<path style=" stroke:none;fill-rule:evenodd;fill:rgb(100%,100%,100%);fill-opacity:1;" d="M 21.894531 20.273438 L 21.902344 20.273438 Z M 21.742188 20.769531 L 22.058594 20.769531 L 21.902344 20.289062 Z M 21.726562 20.78125 L 21.894531 20.261719 L 21.90625 20.261719 L 21.90625 20.265625 L 21.902344 20.265625 L 21.90625 20.265625 L 21.90625 20.261719 L 21.910156 20.261719 L 22.082031 20.78125 Z M 22.085938 21.304688 C 22.175781 21.304688 22.261719 21.296875 22.347656 21.296875 C 22.429688 21.296875 22.507812 21.304688 22.589844 21.304688 L 22.589844 21.269531 L 22.582031 21.269531 C 22.519531 21.269531 22.480469 21.246094 22.457031 21.191406 C 22.4375 21.140625 22.414062 21.074219 22.390625 21.011719 L 22.0625 20.074219 C 22.058594 20.0625 22.054688 20.046875 22.046875 20.035156 C 22.046875 20.03125 22.046875 20.03125 22.046875 20.03125 L 22.042969 20.03125 C 22.042969 20.03125 22.035156 20.035156 22.03125 20.035156 C 21.996094 20.058594 21.929688 20.09375 21.871094 20.101562 C 21.863281 20.171875 21.828125 20.261719 21.804688 20.328125 L 21.523438 21.144531 C 21.496094 21.222656 21.433594 21.269531 21.359375 21.269531 L 21.355469 21.269531 L 21.355469 21.304688 C 21.414062 21.304688 21.476562 21.296875 21.539062 21.296875 C 21.613281 21.296875 21.679688 21.304688 21.75 21.304688 L 21.75 21.269531 L 21.738281 21.269531 C 21.679688 21.269531 21.597656 21.257812 21.597656 21.195312 C 21.597656 21.164062 21.617188 21.117188 21.636719 21.054688 L 21.640625 21.0625 L 21.636719 21.054688 L 21.691406 20.863281 L 22.109375 20.863281 L 22.183594 21.078125 C 22.199219 21.132812 22.214844 21.179688 22.214844 21.207031 C 22.214844 21.265625 22.136719 21.269531 22.097656 21.269531 L 22.085938 21.269531 Z M 22.59375 21.320312 C 22.515625 21.320312 22.429688 21.316406 22.347656 21.316406 C 22.261719 21.316406 22.171875 21.320312 22.082031 21.320312 L 22.074219 21.320312 L 22.074219 21.253906 L 22.097656 21.253906 C 22.144531 21.253906 22.203125 21.242188 22.203125 21.207031 C 22.203125 21.191406 22.1875 21.140625 22.164062 21.082031 L 22.097656 20.878906 L 21.710938 20.878906 L 21.652344 21.0625 C 21.628906 21.125 21.613281 21.167969 21.613281 21.195312 C 21.613281 21.242188 21.679688 21.253906 21.738281 21.253906 L 21.765625 21.253906 L 21.765625 21.320312 L 21.761719 21.320312 C 21.6875 21.320312 21.613281 21.316406 21.539062 21.316406 C 21.476562 21.316406 21.414062 21.320312 21.347656 21.320312 L 21.34375 21.320312 L 21.34375 21.253906 L 21.359375 21.253906 C 21.425781 21.253906 21.484375 21.214844 21.507812 21.140625 L 21.792969 20.324219 C 21.816406 20.253906 21.851562 20.171875 21.863281 20.097656 C 21.917969 20.082031 21.992188 20.042969 22.023438 20.019531 C 22.03125 20.019531 22.035156 20.019531 22.042969 20.019531 C 22.046875 20.019531 22.058594 20.019531 22.0625 20.03125 C 22.070312 20.042969 22.074219 20.058594 22.082031 20.074219 L 22.40625 21.003906 C 22.429688 21.066406 22.445312 21.132812 22.476562 21.183594 C 22.492188 21.234375 22.527344 21.253906 22.582031 21.253906 L 22.601562 21.253906 L 22.601562 21.320312 Z M 22.59375 21.320312 "/>
<path style=" stroke:none;fill-rule:evenodd;fill:rgb(100%,100%,100%);fill-opacity:1;" d="M 23.046875 21.140625 C 23.046875 21.214844 23.09375 21.230469 23.152344 21.242188 C 23.226562 21.246094 23.304688 21.246094 23.386719 21.234375 C 23.460938 21.222656 23.523438 21.183594 23.558594 21.140625 C 23.585938 21.101562 23.601562 21.050781 23.613281 21.011719 L 23.664062 21.011719 C 23.640625 21.113281 23.621094 21.214844 23.597656 21.316406 C 23.4375 21.316406 23.28125 21.308594 23.128906 21.308594 C 22.972656 21.308594 22.8125 21.316406 22.65625 21.316406 L 22.65625 21.257812 L 22.679688 21.257812 C 22.746094 21.257812 22.8125 21.253906 22.8125 21.140625 L 22.8125 20.226562 C 22.8125 20.132812 22.746094 20.121094 22.679688 20.121094 L 22.65625 20.121094 L 22.65625 20.070312 C 22.75 20.070312 22.84375 20.074219 22.9375 20.074219 C 23.027344 20.074219 23.117188 20.070312 23.207031 20.070312 L 23.207031 20.121094 L 23.164062 20.121094 C 23.09375 20.121094 23.046875 20.125 23.046875 20.214844 Z M 23.046875 21.140625 "/>
<path style=" stroke:none;fill-rule:evenodd;fill:rgb(100%,100%,100%);fill-opacity:1;" d="M 23.589844 21.304688 C 23.613281 21.207031 23.636719 21.117188 23.652344 21.015625 L 23.621094 21.015625 C 23.609375 21.054688 23.589844 21.105469 23.5625 21.144531 C 23.53125 21.191406 23.460938 21.234375 23.386719 21.242188 C 23.339844 21.246094 23.292969 21.253906 23.246094 21.253906 C 23.214844 21.253906 23.179688 21.246094 23.152344 21.246094 C 23.089844 21.242188 23.035156 21.214844 23.035156 21.140625 L 23.035156 20.222656 C 23.035156 20.121094 23.101562 20.113281 23.164062 20.113281 L 23.203125 20.113281 L 23.203125 20.074219 C 23.113281 20.074219 23.027344 20.085938 22.9375 20.085938 C 22.847656 20.085938 22.757812 20.074219 22.660156 20.074219 L 22.660156 20.113281 L 22.679688 20.113281 C 22.746094 20.113281 22.824219 20.125 22.824219 20.226562 L 22.824219 21.140625 C 22.824219 21.257812 22.746094 21.269531 22.679688 21.269531 L 22.660156 21.269531 L 22.660156 21.304688 C 22.820312 21.304688 22.972656 21.296875 23.128906 21.296875 C 23.28125 21.296875 23.4375 21.304688 23.589844 21.304688 M 23.597656 21.320312 C 23.4375 21.320312 23.289062 21.316406 23.128906 21.316406 C 22.972656 21.316406 22.8125 21.320312 22.65625 21.320312 L 22.648438 21.320312 L 22.648438 21.253906 L 22.679688 21.253906 C 22.746094 21.253906 22.808594 21.246094 22.808594 21.140625 L 22.808594 20.226562 C 22.808594 20.136719 22.746094 20.132812 22.679688 20.132812 L 22.648438 20.132812 L 22.648438 20.0625 L 22.65625 20.0625 C 22.75 20.0625 22.84375 20.070312 22.9375 20.070312 C 23.027344 20.070312 23.117188 20.0625 23.207031 20.0625 L 23.21875 20.0625 L 23.21875 20.132812 L 23.164062 20.132812 C 23.09375 20.132812 23.050781 20.132812 23.050781 20.222656 L 23.050781 21.140625 C 23.050781 21.207031 23.09375 21.222656 23.152344 21.230469 C 23.179688 21.234375 23.214844 21.234375 23.246094 21.234375 C 23.292969 21.234375 23.339844 21.234375 23.382812 21.230469 C 23.457031 21.21875 23.519531 21.179688 23.550781 21.132812 C 23.582031 21.09375 23.589844 21.050781 23.601562 21.011719 L 23.609375 21.003906 L 23.675781 21.003906 L 23.671875 21.011719 C 23.652344 21.117188 23.625 21.214844 23.601562 21.316406 L 23.601562 21.320312 Z M 23.597656 21.320312 "/>
</g>
</svg>
