<?xml version="1.0" encoding="UTF-8"?>
<svg xmlns="http://www.w3.org/2000/svg" xmlns:xlink="http://www.w3.org/1999/xlink" width="52px" height="52px" viewBox="0 0 32 14" version="1.1">
<g id="surface1">
<path style=" stroke:none;fill-rule:nonzero;fill:rgb(10.196078%,12.156863%,44.313725%);fill-opacity:1;" d="M 12.148438 0.179688 L 7.960938 10 L 5.226562 10 L 3.164062 2.160156 C 3.039062 1.679688 2.929688 1.503906 2.550781 1.300781 C 1.929688 0.96875 0.902344 0.65625 0 0.464844 L 0.0625 0.179688 L 4.460938 0.179688 C 5.019531 0.179688 5.527344 0.546875 5.652344 1.179688 L 6.742188 6.863281 L 9.433594 0.179688 Z M 15.84375 0.179688 L 13.707031 10 L 11.121094 10 L 13.257812 0.179688 Z M 22.859375 6.792969 C 22.871094 4.203125 19.210938 4.058594 19.234375 2.898438 C 19.246094 2.546875 19.585938 2.171875 20.332031 2.078125 C 20.703125 2.03125 21.726562 1.992188 22.882812 2.515625 L 23.335938 0.433594 C 22.714844 0.210938 21.914062 0 20.917969 0 C 18.363281 0 16.5625 1.332031 16.550781 3.246094 C 16.53125 4.660156 17.832031 5.449219 18.8125 5.917969 C 19.820312 6.398438 20.15625 6.707031 20.152344 7.136719 C 20.144531 7.796875 19.347656 8.089844 18.605469 8.101562 C 17.304688 8.121094 16.550781 7.753906 15.949219 7.480469 L 15.480469 9.632812 C 16.085938 9.902344 17.203125 10.140625 18.355469 10.152344 C 21.074219 10.152344 22.851562 8.835938 22.859375 6.792969 Z M 29.609375 10 L 32 10 L 29.910156 0.179688 L 27.707031 0.179688 C 27.207031 0.179688 26.789062 0.464844 26.605469 0.898438 L 22.722656 10 L 25.441406 10 L 25.976562 8.53125 L 29.296875 8.53125 Z M 26.722656 6.519531 L 28.085938 2.832031 L 28.867188 6.519531 Z M 19.152344 12.703125 L 18.101562 12.703125 L 18.101562 13.664062 L 19.277344 13.664062 L 19.277344 13.949219 L 17.75 13.949219 L 17.75 11.285156 L 19.21875 11.285156 L 19.21875 11.574219 L 18.101562 11.574219 L 18.101562 12.417969 L 19.152344 12.417969 Z M 19.820312 11.144531 L 20.175781 11.144531 L 20.175781 13.949219 L 19.820312 13.949219 Z M 21.070312 13.058594 C 21.078125 13.527344 21.378906 13.722656 21.738281 13.722656 C 21.992188 13.722656 22.148438 13.679688 22.277344 13.621094 L 22.339844 13.871094 C 22.214844 13.925781 22 13.996094 21.6875 13.996094 C 21.089844 13.996094 20.730469 13.601562 20.730469 13.027344 C 20.730469 12.449219 21.078125 11.996094 21.644531 11.996094 C 22.285156 11.996094 22.449219 12.542969 22.449219 12.894531 C 22.449219 12.964844 22.445312 13.019531 22.4375 13.058594 Z M 22.105469 12.808594 C 22.109375 12.589844 22.015625 12.246094 21.617188 12.246094 C 21.253906 12.246094 21.101562 12.566406 21.074219 12.808594 Z M 24.375 13.882812 C 24.285156 13.925781 24.078125 13.996094 23.816406 13.996094 C 23.230469 13.996094 22.847656 13.601562 22.847656 13.019531 C 22.847656 12.429688 23.257812 11.996094 23.894531 11.996094 C 24.101562 11.996094 24.289062 12.050781 24.382812 12.101562 L 24.304688 12.367188 C 24.21875 12.320312 24.085938 12.273438 23.894531 12.273438 C 23.445312 12.273438 23.207031 12.601562 23.207031 13 C 23.207031 13.441406 23.496094 13.714844 23.882812 13.714844 C 24.082031 13.714844 24.214844 13.667969 24.316406 13.621094 Z M 25.371094 11.578125 L 25.371094 12.039062 L 25.875 12.039062 L 25.875 12.300781 L 25.371094 12.300781 L 25.371094 13.335938 C 25.371094 13.570312 25.4375 13.707031 25.636719 13.707031 C 25.730469 13.707031 25.789062 13.699219 25.839844 13.683594 L 25.855469 13.945312 C 25.789062 13.972656 25.679688 13.996094 25.542969 13.996094 C 25.378906 13.996094 25.246094 13.9375 25.160156 13.847656 C 25.0625 13.742188 25.023438 13.570312 25.023438 13.347656 L 25.023438 12.300781 L 24.722656 12.300781 L 24.722656 12.039062 L 25.023438 12.039062 L 25.023438 11.679688 Z M 26.371094 12.632812 C 26.371094 12.410156 26.367188 12.214844 26.355469 12.039062 L 26.664062 12.039062 L 26.679688 12.417969 L 26.695312 12.417969 C 26.78125 12.160156 27 11.996094 27.238281 11.996094 C 27.273438 11.996094 27.300781 12 27.332031 12.003906 L 27.332031 12.332031 C 27.296875 12.324219 27.261719 12.324219 27.210938 12.324219 C 26.964844 12.324219 26.785156 12.507812 26.738281 12.769531 C 26.730469 12.816406 26.726562 12.875 26.726562 12.929688 L 26.726562 13.953125 L 26.371094 13.953125 Z M 29.511719 12.976562 C 29.511719 13.6875 29.007812 13.996094 28.539062 13.996094 C 28.015625 13.996094 27.605469 13.613281 27.605469 13.011719 C 27.605469 12.375 28.039062 11.996094 28.574219 11.996094 C 29.132812 11.996094 29.511719 12.398438 29.511719 12.976562 Z M 27.96875 13 C 27.96875 13.417969 28.210938 13.734375 28.554688 13.734375 C 28.894531 13.734375 29.148438 13.421875 29.148438 12.988281 C 29.148438 12.664062 28.984375 12.257812 28.5625 12.257812 C 28.148438 12.257812 27.96875 12.636719 27.96875 13 Z M 30.054688 12.554688 C 30.054688 12.355469 30.050781 12.195312 30.035156 12.039062 L 30.351562 12.039062 L 30.371094 12.355469 L 30.378906 12.355469 C 30.476562 12.175781 30.699219 11.996094 31.023438 11.996094 C 31.292969 11.996094 31.710938 12.15625 31.710938 12.8125 L 31.710938 13.949219 L 31.355469 13.949219 L 31.355469 12.847656 C 31.355469 12.539062 31.242188 12.28125 30.90625 12.28125 C 30.675781 12.28125 30.496094 12.445312 30.429688 12.636719 C 30.414062 12.683594 30.40625 12.742188 30.40625 12.800781 L 30.40625 13.949219 L 30.054688 13.949219 Z M 30.054688 12.554688 "/>
</g>
</svg>
