<?xml version="1.0" encoding="UTF-8"?>
<svg xmlns="http://www.w3.org/2000/svg" xmlns:xlink="http://www.w3.org/1999/xlink" width="52px" height="52px" viewBox="0 0 32 32" version="1.1">
<g id="surface1">
<path style=" stroke:none;fill-rule:evenodd;fill:rgb(87.45098%,87.45098%,87.843137%);fill-opacity:1;" d="M 30.574219 5.90625 L 1.367188 5.90625 C 0.800781 5.90625 0.445312 5.992188 0.25 6.175781 C 0.0820312 6.382812 0 6.71875 0 7.21875 L 0 24.738281 C 0 25.632812 0.460938 26.09375 1.367188 26.09375 L 30.574219 26.09375 C 31.523438 26.09375 32 25.632812 32 24.738281 L 32 7.210938 C 32 6.332031 31.523438 5.90625 30.574219 5.90625 Z M 30.574219 5.90625 "/>
<path style=" stroke:none;fill-rule:evenodd;fill:rgb(0%,61.568627%,86.666667%);fill-opacity:1;" d="M 16 21.148438 C 17.398438 19.886719 18.289062 18.050781 18.289062 16.007812 C 18.289062 13.96875 17.40625 12.132812 16 10.851562 C 14.773438 9.738281 13.144531 9.054688 11.351562 9.054688 C 7.511719 9.054688 4.398438 12.167969 4.398438 16.007812 C 4.398438 19.84375 7.511719 22.945312 11.351562 22.945312 C 13.144531 22.945312 14.773438 22.261719 16 21.148438 Z M 16 21.148438 "/>
<path style=" stroke:none;fill-rule:evenodd;fill:rgb(0%,61.568627%,86.666667%);fill-opacity:1;" d="M 16 21.148438 C 17.398438 19.886719 18.289062 18.050781 18.289062 16.007812 C 18.289062 13.96875 17.40625 12.132812 16 10.851562 Z M 16 21.148438 "/>
<path style=" stroke:none;fill-rule:evenodd;fill:rgb(92.941176%,10.588235%,18.039216%);fill-opacity:1;" d="M 20.667969 9.054688 C 18.875 9.054688 17.238281 9.738281 16 10.851562 C 15.757812 11.082031 15.523438 11.324219 15.304688 11.585938 L 16.707031 11.585938 C 16.894531 11.820312 17.074219 12.074219 17.238281 12.324219 L 14.773438 12.324219 C 14.625 12.570312 14.488281 12.8125 14.367188 13.0625 L 17.632812 13.0625 C 17.738281 13.304688 17.851562 13.550781 17.929688 13.800781 L 14.082031 13.800781 C 14 14.042969 13.929688 14.289062 13.875 14.550781 L 18.132812 14.550781 C 18.226562 15.011719 18.28125 15.519531 18.28125 16.019531 C 18.28125 16.78125 18.15625 17.53125 17.925781 18.226562 L 14.074219 18.226562 C 14.15625 18.46875 14.25 18.710938 14.363281 18.960938 L 17.625 18.960938 C 17.5 19.207031 17.382812 19.46875 17.230469 19.699219 L 14.769531 19.699219 C 14.929688 19.957031 15.105469 20.207031 15.300781 20.4375 L 16.699219 20.4375 C 16.480469 20.695312 16.25 20.945312 15.992188 21.175781 C 17.230469 22.289062 18.863281 22.96875 20.664062 22.96875 C 24.5 22.96875 27.601562 19.867188 27.601562 16.03125 C 27.605469 12.167969 24.5 9.054688 20.667969 9.054688 Z M 20.667969 9.054688 "/>
<path style=" stroke:none;fill-rule:evenodd;fill:rgb(92.941176%,10.588235%,18.039216%);fill-opacity:1;" d="M 26.71875 19.867188 C 26.71875 19.742188 26.8125 19.648438 26.9375 19.648438 C 27.0625 19.648438 27.15625 19.742188 27.15625 19.867188 C 27.15625 19.992188 27.0625 20.101562 26.9375 20.101562 C 26.8125 20.101562 26.71875 19.992188 26.71875 19.867188 Z M 26.9375 20.050781 C 27.03125 20.050781 27.113281 19.96875 27.113281 19.875 C 27.113281 19.78125 27.03125 19.710938 26.9375 19.710938 C 26.84375 19.710938 26.761719 19.78125 26.761719 19.875 C 26.761719 19.960938 26.84375 20.050781 26.9375 20.050781 Z M 26.914062 19.960938 L 26.855469 19.960938 L 26.855469 19.773438 L 26.9375 19.773438 C 26.960938 19.773438 26.980469 19.773438 26.992188 19.789062 C 27.007812 19.789062 27.019531 19.8125 27.019531 19.832031 C 27.019531 19.855469 27.007812 19.875 26.992188 19.886719 L 27.019531 19.96875 L 26.960938 19.96875 L 26.9375 19.898438 L 26.914062 19.898438 Z M 26.914062 19.855469 L 26.9375 19.855469 C 26.9375 19.855469 26.949219 19.855469 26.960938 19.855469 C 26.960938 19.855469 26.976562 19.84375 26.976562 19.832031 L 26.960938 19.820312 C 26.949219 19.804688 26.9375 19.804688 26.9375 19.804688 L 26.914062 19.804688 Z M 26.914062 19.855469 "/>
<path style=" stroke:none;fill-rule:evenodd;fill:rgb(0%,20.392157%,45.098039%);fill-opacity:1;" d="M 10.257812 17.9375 L 9.386719 17.9375 L 9.90625 15.230469 L 8.726562 17.9375 L 7.988281 17.9375 L 7.835938 15.242188 L 7.269531 17.9375 L 6.476562 17.9375 L 7.144531 14.414062 L 8.519531 14.414062 L 8.53125 16.59375 L 9.480469 14.414062 L 10.9375 14.414062 Z M 10.257812 17.9375 "/>
<path style=" stroke:none;fill-rule:evenodd;fill:rgb(0%,20.392157%,45.098039%);fill-opacity:1;" d="M 19.917969 17.898438 C 19.675781 17.96875 19.5 17.992188 19.292969 17.992188 C 18.855469 17.992188 18.613281 17.773438 18.613281 17.367188 C 18.613281 17.289062 18.625 17.195312 18.636719 17.113281 L 18.695312 16.824219 L 18.738281 16.605469 L 19.132812 14.417969 L 19.988281 14.417969 L 19.863281 15.070312 L 20.300781 15.070312 L 20.195312 15.761719 L 19.742188 15.761719 L 19.511719 16.960938 C 19.511719 17.019531 19.5 17.054688 19.5 17.085938 C 19.5 17.238281 19.59375 17.292969 19.800781 17.292969 C 19.894531 17.292969 19.976562 17.292969 20.03125 17.269531 Z M 19.917969 17.898438 "/>
<path style=" stroke:none;fill-rule:evenodd;fill:rgb(0%,20.392157%,45.098039%);fill-opacity:1;" d="M 16.488281 15.980469 C 16.488281 16.335938 16.695312 16.59375 17.136719 16.769531 C 17.507812 16.917969 17.5625 16.957031 17.5625 17.09375 C 17.5625 17.269531 17.398438 17.351562 17.054688 17.351562 C 16.78125 17.351562 16.550781 17.304688 16.269531 17.226562 L 16.144531 17.894531 L 16.1875 17.894531 L 16.351562 17.917969 C 16.40625 17.929688 16.476562 17.945312 16.582031 17.945312 C 16.789062 17.957031 16.949219 17.96875 17.054688 17.96875 C 17.980469 17.96875 18.398438 17.667969 18.398438 17.019531 C 18.398438 16.625 18.226562 16.394531 17.789062 16.21875 C 17.417969 16.082031 17.382812 16.042969 17.382812 15.90625 C 17.382812 15.757812 17.53125 15.675781 17.800781 15.675781 C 17.976562 15.675781 18.207031 15.6875 18.4375 15.71875 L 18.5625 15.070312 C 18.332031 15.023438 17.992188 15 17.789062 15 C 16.820312 15 16.476562 15.449219 16.488281 15.980469 Z M 16.488281 15.980469 "/>
<path style=" stroke:none;fill-rule:evenodd;fill:rgb(0%,20.392157%,45.098039%);fill-opacity:1;" d="M 13.0625 17.9375 L 12.34375 17.9375 L 12.355469 17.636719 C 12.136719 17.867188 11.835938 17.976562 11.445312 17.976562 C 10.980469 17.976562 10.65625 17.664062 10.65625 17.199219 C 10.65625 16.507812 11.210938 16.101562 12.179688 16.101562 C 12.273438 16.101562 12.398438 16.101562 12.539062 16.113281 C 12.5625 16.019531 12.5625 15.976562 12.5625 15.9375 C 12.5625 15.75 12.414062 15.664062 12.007812 15.664062 C 11.761719 15.664062 11.488281 15.707031 11.300781 15.742188 L 11.175781 15.789062 L 11.09375 15.800781 L 11.21875 15.164062 C 11.65625 15.039062 11.9375 15 12.25 15 C 13 15 13.394531 15.300781 13.394531 15.84375 C 13.394531 15.992188 13.382812 16.085938 13.3125 16.414062 L 13.136719 17.417969 L 13.113281 17.613281 L 13.085938 17.761719 L 13.074219 17.855469 L 13.074219 17.9375 Z M 12.476562 16.664062 C 12.382812 16.648438 12.335938 16.648438 12.269531 16.648438 C 11.78125 16.648438 11.53125 16.800781 11.53125 17.085938 C 11.53125 17.261719 11.65625 17.375 11.84375 17.375 C 12.207031 17.367188 12.460938 17.082031 12.476562 16.664062 Z M 12.476562 16.664062 "/>
<path style=" stroke:none;fill-rule:evenodd;fill:rgb(0%,20.392157%,45.098039%);fill-opacity:1;" d="M 15.894531 17.867188 C 15.605469 17.949219 15.324219 17.992188 15.011719 17.992188 C 14.042969 17.992188 13.542969 17.542969 13.542969 16.699219 C 13.542969 15.71875 14.179688 15 15.054688 15 C 15.773438 15 16.226562 15.40625 16.226562 16.03125 C 16.226562 16.25 16.199219 16.449219 16.117188 16.738281 L 14.40625 16.738281 C 14.394531 16.792969 14.394531 16.804688 14.394531 16.832031 C 14.394531 17.15625 14.648438 17.335938 15.15625 17.335938 C 15.46875 17.335938 15.742188 17.28125 16.054688 17.148438 Z M 15.480469 16.167969 C 15.480469 16.101562 15.480469 16.0625 15.480469 16.019531 C 15.480469 15.789062 15.332031 15.648438 15.074219 15.648438 C 14.800781 15.648438 14.601562 15.824219 14.519531 16.167969 Z M 15.480469 16.167969 "/>
<path style=" stroke:none;fill-rule:evenodd;fill:rgb(0%,20.392157%,45.098039%);fill-opacity:1;" d="M 25.113281 16.632812 C 24.988281 17.582031 24.324219 18.007812 23.4375 18.007812 C 22.457031 18.007812 22.0625 17.417969 22.0625 16.6875 C 22.0625 15.679688 22.730469 14.988281 23.761719 14.988281 C 24.664062 14.988281 25.136719 15.554688 25.136719 16.28125 C 25.144531 16.457031 25.144531 16.46875 25.113281 16.632812 Z M 24.242188 16.292969 C 24.242188 15.992188 24.117188 15.707031 23.769531 15.707031 C 23.332031 15.707031 23.050781 16.238281 23.050781 16.6875 C 23.050781 17.082031 23.238281 17.335938 23.554688 17.335938 C 23.742188 17.335938 24.144531 17.082031 24.226562 16.632812 C 24.230469 16.539062 24.242188 16.414062 24.242188 16.292969 Z M 24.242188 16.292969 "/>
<path style=" stroke:none;fill-rule:evenodd;fill:rgb(100%,100%,100%);fill-opacity:1;" d="M 25.210938 17.507812 C 25.210938 17.382812 25.320312 17.289062 25.445312 17.289062 C 25.570312 17.289062 25.664062 17.382812 25.664062 17.507812 C 25.664062 17.632812 25.570312 17.738281 25.445312 17.738281 C 25.320312 17.738281 25.210938 17.625 25.210938 17.507812 Z M 25.445312 17.679688 C 25.539062 17.679688 25.605469 17.601562 25.605469 17.507812 C 25.605469 17.414062 25.539062 17.34375 25.445312 17.34375 C 25.351562 17.34375 25.269531 17.414062 25.269531 17.507812 C 25.261719 17.601562 25.34375 17.679688 25.445312 17.679688 Z M 25.414062 17.601562 L 25.355469 17.601562 L 25.355469 17.414062 L 25.4375 17.414062 C 25.460938 17.414062 25.480469 17.414062 25.492188 17.425781 C 25.507812 17.4375 25.519531 17.449219 25.519531 17.46875 C 25.519531 17.492188 25.507812 17.523438 25.476562 17.523438 L 25.519531 17.605469 L 25.460938 17.605469 L 25.4375 17.539062 L 25.414062 17.539062 Z M 25.414062 17.488281 L 25.4375 17.488281 C 25.4375 17.488281 25.449219 17.488281 25.460938 17.488281 C 25.460938 17.488281 25.460938 17.476562 25.460938 17.460938 L 25.460938 17.449219 C 25.449219 17.449219 25.4375 17.449219 25.417969 17.449219 L 25.40625 17.449219 L 25.40625 17.488281 Z M 25.414062 17.488281 "/>
<path style=" stroke:none;fill-rule:evenodd;fill:rgb(100%,100%,100%);fill-opacity:1;" d="M 10.476562 17.738281 L 9.605469 17.738281 L 10.125 15.023438 L 8.9375 17.738281 L 8.148438 17.738281 L 8.011719 15.042969 L 7.5 17.738281 L 6.707031 17.738281 L 7.375 14.210938 L 8.738281 14.210938 L 8.804688 16.386719 L 9.757812 14.210938 L 11.15625 14.210938 Z M 10.476562 17.738281 "/>
<path style=" stroke:none;fill-rule:evenodd;fill:rgb(100%,100%,100%);fill-opacity:1;" d="M 20.136719 17.695312 C 19.894531 17.761719 19.710938 17.789062 19.511719 17.789062 C 19.074219 17.789062 18.832031 17.570312 18.832031 17.164062 C 18.832031 17.082031 18.84375 17 18.855469 16.90625 L 18.914062 16.617188 L 18.957031 16.398438 L 19.351562 14.210938 L 20.207031 14.210938 L 20.082031 14.863281 L 20.53125 14.863281 L 20.40625 15.554688 L 19.957031 15.554688 L 19.738281 16.757812 C 19.726562 16.8125 19.710938 16.851562 19.710938 16.882812 C 19.710938 17.03125 19.804688 17.101562 20.011719 17.101562 C 20.105469 17.101562 20.1875 17.085938 20.242188 17.074219 Z M 20.136719 17.695312 "/>
<path style=" stroke:none;fill-rule:evenodd;fill:rgb(0%,20.392157%,45.098039%);fill-opacity:1;" d="M 22.351562 15.695312 L 22.335938 15.601562 L 22.5 15.148438 C 22.457031 15.148438 22.445312 15.148438 22.429688 15.136719 C 22.386719 15.136719 22.363281 15.125 22.363281 15.125 C 22.335938 15.125 22.304688 15.125 22.28125 15.125 C 21.992188 15.125 21.792969 15.25 21.519531 15.585938 L 21.613281 15.070312 L 20.710938 15.070312 L 20.1875 17.9375 L 21.042969 17.9375 C 21.167969 17.269531 21.21875 16.90625 21.289062 16.59375 C 21.394531 16.074219 21.773438 15.84375 22.0625 15.898438 C 22.085938 15.898438 22.117188 15.898438 22.15625 15.914062 L 22.210938 15.9375 Z M 22.351562 15.695312 "/>
<path style=" stroke:none;fill-rule:evenodd;fill:rgb(100%,100%,100%);fill-opacity:1;" d="M 22.648438 14.894531 C 22.582031 14.867188 22.570312 14.867188 22.554688 14.867188 C 22.511719 14.855469 22.488281 14.855469 22.488281 14.84375 C 22.460938 14.84375 22.429688 14.84375 22.394531 14.84375 C 22.105469 14.84375 21.90625 14.96875 21.644531 15.304688 L 21.726562 14.867188 L 20.9375 14.867188 L 20.40625 17.738281 L 21.273438 17.738281 C 21.585938 15.980469 21.710938 15.667969 22.132812 15.667969 C 22.15625 15.667969 22.199219 15.679688 22.238281 15.679688 L 22.332031 15.707031 Z M 22.648438 14.894531 "/>
<path style=" stroke:none;fill-rule:evenodd;fill:rgb(100%,100%,100%);fill-opacity:1;" d="M 16.707031 15.773438 C 16.707031 16.132812 16.914062 16.386719 17.375 16.5625 C 17.730469 16.710938 17.78125 16.75 17.78125 16.886719 C 17.78125 17.0625 17.617188 17.144531 17.273438 17.144531 C 17.019531 17.144531 16.773438 17.101562 16.488281 17.019531 L 16.382812 17.6875 L 16.425781 17.6875 L 16.574219 17.730469 C 16.632812 17.730469 16.710938 17.742188 16.804688 17.742188 C 17.011719 17.769531 17.175781 17.769531 17.292969 17.769531 C 18.207031 17.769531 18.644531 17.46875 18.644531 16.820312 C 18.644531 16.425781 18.46875 16.195312 18.019531 16.019531 C 17.648438 15.882812 17.613281 15.84375 17.613281 15.707031 C 17.613281 15.554688 17.761719 15.476562 18.050781 15.476562 C 18.210938 15.476562 18.457031 15.488281 18.675781 15.519531 L 18.800781 14.867188 C 18.570312 14.824219 18.230469 14.8125 18.039062 14.8125 C 17.050781 14.8125 16.707031 15.242188 16.707031 15.773438 Z M 16.707031 15.773438 "/>
<path style=" stroke:none;fill-rule:evenodd;fill:rgb(100%,100%,100%);fill-opacity:1;" d="M 13.28125 17.738281 L 12.574219 17.738281 L 12.585938 17.4375 C 12.367188 17.667969 12.070312 17.773438 11.675781 17.773438 C 11.210938 17.773438 10.886719 17.460938 10.886719 17 C 10.886719 16.304688 11.445312 15.898438 12.414062 15.898438 C 12.507812 15.898438 12.632812 15.898438 12.769531 15.914062 C 12.792969 15.820312 12.792969 15.773438 12.792969 15.738281 C 12.792969 15.550781 12.644531 15.480469 12.238281 15.480469 C 11.992188 15.480469 11.71875 15.507812 11.53125 15.550781 L 11.40625 15.59375 L 11.324219 15.605469 L 11.449219 14.96875 C 11.886719 14.863281 12.15625 14.820312 12.480469 14.820312 C 13.230469 14.820312 13.613281 15.105469 13.613281 15.648438 C 13.613281 15.800781 13.601562 15.90625 13.542969 16.21875 L 13.367188 17.238281 L 13.34375 17.414062 L 13.320312 17.5625 L 13.304688 17.65625 Z M 12.65625 16.457031 C 12.5625 16.445312 12.519531 16.445312 12.46875 16.445312 C 11.980469 16.445312 11.730469 16.59375 11.730469 16.882812 C 11.730469 17.054688 11.835938 17.179688 12.03125 17.179688 C 12.382812 17.175781 12.636719 16.875 12.65625 16.457031 Z M 12.65625 16.457031 "/>
<path style=" stroke:none;fill-rule:evenodd;fill:rgb(100%,100%,100%);fill-opacity:1;" d="M 16.125 17.667969 C 15.824219 17.75 15.539062 17.792969 15.242188 17.792969 C 14.273438 17.792969 13.773438 17.34375 13.773438 16.5 C 13.773438 15.519531 14.414062 14.800781 15.289062 14.800781 C 15.992188 14.800781 16.445312 15.207031 16.445312 15.832031 C 16.445312 16.050781 16.417969 16.25 16.351562 16.539062 L 14.625 16.539062 C 14.625 16.59375 14.625 16.605469 14.625 16.632812 C 14.625 16.957031 14.867188 17.136719 15.375 17.136719 C 15.6875 17.136719 15.976562 17.082031 16.273438 16.960938 Z M 15.664062 15.96875 C 15.664062 15.914062 15.664062 15.863281 15.664062 15.820312 C 15.664062 15.585938 15.511719 15.449219 15.257812 15.449219 C 14.980469 15.449219 14.792969 15.636719 14.710938 15.96875 Z M 15.664062 15.96875 "/>
<path style=" stroke:none;fill-rule:evenodd;fill:rgb(100%,100%,100%);fill-opacity:1;" d="M 25.34375 16.429688 C 25.207031 17.382812 24.542969 17.804688 23.65625 17.804688 C 22.6875 17.804688 22.292969 17.21875 22.292969 16.488281 C 22.292969 15.480469 22.960938 14.789062 23.992188 14.789062 C 24.894531 14.789062 25.367188 15.355469 25.367188 16.082031 C 25.375 16.25 25.375 16.261719 25.34375 16.429688 Z M 24.449219 16.0625 C 24.449219 15.761719 24.324219 15.492188 23.976562 15.492188 C 23.539062 15.492188 23.269531 16.011719 23.269531 16.476562 C 23.269531 16.855469 23.457031 17.113281 23.757812 17.113281 C 23.945312 17.113281 24.355469 16.855469 24.425781 16.417969 C 24.449219 16.304688 24.449219 16.179688 24.449219 16.0625 Z M 24.449219 16.0625 "/>
</g>
</svg>
