<?xml version="1.0" encoding="UTF-8"?>
<svg xmlns="http://www.w3.org/2000/svg" xmlns:xlink="http://www.w3.org/1999/xlink" width="52px" height="52px" viewBox="0 0 32 32" version="1.1">
<defs>
<clipPath id="clip1">
  <rect x="0" y="0" width="32" height="32"/>
</clipPath>
<g id="surface5" clip-path="url(#clip1)">
<path style=" stroke:none;fill-rule:evenodd;fill:rgb(0%,35.686275%,67.45098%);fill-opacity:1;" d="M 13.207031 11.527344 L 11.742188 20.539062 L 14.085938 20.539062 L 15.554688 11.527344 Z M 9.765625 11.527344 L 7.53125 17.726562 L 7.265625 16.390625 L 7.207031 16.09375 C 6.9375 15.507812 6.308594 14.402344 5.125 13.453125 C 4.777344 13.175781 4.421875 12.9375 4.082031 12.730469 L 6.113281 20.539062 L 8.558594 20.539062 L 12.292969 11.527344 Z M 18.925781 14.03125 C 18.925781 13.011719 21.210938 13.140625 22.214844 13.695312 L 22.550781 11.757812 C 22.550781 11.757812 21.515625 11.367188 20.4375 11.367188 C 19.273438 11.367188 16.507812 11.875 16.507812 14.351562 C 16.507812 16.679688 19.753906 16.707031 19.753906 17.929688 C 19.753906 19.152344 16.84375 18.933594 15.882812 18.164062 L 15.535156 20.1875 C 15.535156 20.1875 16.582031 20.695312 18.183594 20.695312 C 19.785156 20.695312 22.199219 19.867188 22.199219 17.609375 C 22.199219 15.265625 18.925781 15.046875 18.925781 14.03125 Z M 28.5 11.527344 L 26.613281 11.527344 C 25.742188 11.527344 25.53125 12.199219 25.53125 12.199219 L 22.03125 20.539062 L 24.476562 20.539062 L 24.964844 19.203125 L 27.949219 19.203125 L 28.222656 20.539062 L 30.378906 20.539062 Z M 25.640625 17.351562 L 26.875 13.980469 L 27.570312 17.351562 Z M 25.640625 17.351562 "/>
</g>
<clipPath id="clip2">
  <rect x="0" y="0" width="32" height="32"/>
</clipPath>
<g id="surface8" clip-path="url(#clip2)">
<path style=" stroke:none;fill-rule:evenodd;fill:rgb(96.470588%,67.45098%,11.372549%);fill-opacity:1;" d="M 6.507812 12.375 C 6.507812 12.375 6.410156 11.5625 5.375 11.5625 L 1.605469 11.5625 L 1.5625 11.714844 C 1.5625 11.714844 3.375 12.085938 5.109375 13.46875 C 6.769531 14.789062 7.3125 16.4375 7.3125 16.4375 Z M 6.507812 12.375 "/>
</g>
</defs>
<g id="surface1">
<use xlink:href="#surface5"/>
<use xlink:href="#surface8"/>
</g>
</svg>
